G04 #@! TF.GenerationSoftware,KiCad,Pcbnew,6.0.9-8da3e8f707~116~ubuntu22.04.1*
G04 #@! TF.CreationDate,2022-11-15T22:26:04-07:00*
G04 #@! TF.ProjectId,Xiegu MiniMic,58696567-7520-44d6-996e-694d69632e6b,rev?*
G04 #@! TF.SameCoordinates,PX41672a0PY54efc64*
G04 #@! TF.FileFunction,Legend,Bot*
G04 #@! TF.FilePolarity,Positive*
%FSLAX46Y46*%
G04 Gerber Fmt 4.6, Leading zero omitted, Abs format (unit mm)*
G04 Created by KiCad (PCBNEW 6.0.9-8da3e8f707~116~ubuntu22.04.1) date 2022-11-15 22:26:04*
%MOMM*%
%LPD*%
G01*
G04 APERTURE LIST*
%ADD10C,0.150000*%
%ADD11C,0.120000*%
%ADD12C,1.498000*%
%ADD13C,1.950000*%
%ADD14C,4.400000*%
%ADD15C,3.200000*%
%ADD16R,1.500000X1.500000*%
%ADD17C,1.500000*%
%ADD18C,1.300000*%
G04 APERTURE END LIST*
D10*
X37299380Y13882524D02*
X36299380Y13882524D01*
X37013666Y13549191D01*
X36299380Y13215858D01*
X37299380Y13215858D01*
X37299380Y12739667D02*
X36299380Y12739667D01*
X37299380Y12168239D02*
X36727952Y12596810D01*
X36299380Y12168239D02*
X36870809Y12739667D01*
X37299380Y11215858D02*
X37299380Y11787286D01*
X37299380Y11501572D02*
X36299380Y11501572D01*
X36442238Y11596810D01*
X36537476Y11692048D01*
X36585095Y11787286D01*
D11*
X38560000Y12700000D02*
G75*
G03*
X38560000Y12700000I-3000000J0D01*
G01*
%LPC*%
D12*
X38390000Y3302000D03*
X42890000Y3302000D03*
D13*
X37135000Y5792000D03*
X44145000Y5792000D03*
D14*
X48260000Y2540000D03*
D15*
X6370000Y6985000D03*
X6370000Y18415000D03*
D16*
X12720000Y17145000D03*
D17*
X15260000Y15875000D03*
X12720000Y14605000D03*
X15260000Y13335000D03*
X12720000Y12065000D03*
X15260000Y10795000D03*
X12720000Y9525000D03*
X15260000Y8255000D03*
D14*
X2540000Y2540000D03*
X48260000Y22860000D03*
X2540000Y22860000D03*
D18*
X34660000Y11750000D03*
X34660000Y13650000D03*
M02*
