G04 #@! TF.GenerationSoftware,KiCad,Pcbnew,6.0.9-8da3e8f707~116~ubuntu22.04.1*
G04 #@! TF.CreationDate,2022-11-15T15:38:02-07:00*
G04 #@! TF.ProjectId,Xiegu MiniMic,58696567-7520-44d6-996e-694d69632e6b,rev?*
G04 #@! TF.SameCoordinates,PX41672a0PY54efc64*
G04 #@! TF.FileFunction,Copper,L1,Top*
G04 #@! TF.FilePolarity,Positive*
%FSLAX46Y46*%
G04 Gerber Fmt 4.6, Leading zero omitted, Abs format (unit mm)*
G04 Created by KiCad (PCBNEW 6.0.9-8da3e8f707~116~ubuntu22.04.1) date 2022-11-15 15:38:02*
%MOMM*%
%LPD*%
G01*
G04 APERTURE LIST*
G04 Aperture macros list*
%AMRoundRect*
0 Rectangle with rounded corners*
0 $1 Rounding radius*
0 $2 $3 $4 $5 $6 $7 $8 $9 X,Y pos of 4 corners*
0 Add a 4 corners polygon primitive as box body*
4,1,4,$2,$3,$4,$5,$6,$7,$8,$9,$2,$3,0*
0 Add four circle primitives for the rounded corners*
1,1,$1+$1,$2,$3*
1,1,$1+$1,$4,$5*
1,1,$1+$1,$6,$7*
1,1,$1+$1,$8,$9*
0 Add four rect primitives between the rounded corners*
20,1,$1+$1,$2,$3,$4,$5,0*
20,1,$1+$1,$4,$5,$6,$7,0*
20,1,$1+$1,$6,$7,$8,$9,0*
20,1,$1+$1,$8,$9,$2,$3,0*%
G04 Aperture macros list end*
G04 #@! TA.AperFunction,SMDPad,CuDef*
%ADD10RoundRect,0.250000X-0.375000X-0.850000X0.375000X-0.850000X0.375000X0.850000X-0.375000X0.850000X0*%
G04 #@! TD*
G04 #@! TA.AperFunction,SMDPad,CuDef*
%ADD11RoundRect,0.250000X-0.475000X0.250000X-0.475000X-0.250000X0.475000X-0.250000X0.475000X0.250000X0*%
G04 #@! TD*
G04 #@! TA.AperFunction,SMDPad,CuDef*
%ADD12RoundRect,0.250000X0.450000X-0.262500X0.450000X0.262500X-0.450000X0.262500X-0.450000X-0.262500X0*%
G04 #@! TD*
G04 #@! TA.AperFunction,SMDPad,CuDef*
%ADD13RoundRect,0.250000X0.250000X0.475000X-0.250000X0.475000X-0.250000X-0.475000X0.250000X-0.475000X0*%
G04 #@! TD*
G04 #@! TA.AperFunction,SMDPad,CuDef*
%ADD14RoundRect,0.250000X0.475000X-0.250000X0.475000X0.250000X-0.475000X0.250000X-0.475000X-0.250000X0*%
G04 #@! TD*
G04 #@! TA.AperFunction,ComponentPad*
%ADD15C,1.498000*%
G04 #@! TD*
G04 #@! TA.AperFunction,ComponentPad*
%ADD16C,1.950000*%
G04 #@! TD*
G04 #@! TA.AperFunction,ComponentPad*
%ADD17C,4.400000*%
G04 #@! TD*
G04 #@! TA.AperFunction,SMDPad,CuDef*
%ADD18RoundRect,0.250000X-0.250000X-0.475000X0.250000X-0.475000X0.250000X0.475000X-0.250000X0.475000X0*%
G04 #@! TD*
G04 #@! TA.AperFunction,ComponentPad*
%ADD19R,1.500000X1.500000*%
G04 #@! TD*
G04 #@! TA.AperFunction,ComponentPad*
%ADD20C,1.500000*%
G04 #@! TD*
G04 #@! TA.AperFunction,SMDPad,CuDef*
%ADD21R,0.900000X1.200000*%
G04 #@! TD*
G04 #@! TA.AperFunction,SMDPad,CuDef*
%ADD22RoundRect,0.250000X1.050000X0.550000X-1.050000X0.550000X-1.050000X-0.550000X1.050000X-0.550000X0*%
G04 #@! TD*
G04 #@! TA.AperFunction,ComponentPad*
%ADD23C,1.300000*%
G04 #@! TD*
G04 #@! TA.AperFunction,ViaPad*
%ADD24C,0.800000*%
G04 #@! TD*
G04 #@! TA.AperFunction,Conductor*
%ADD25C,0.635000*%
G04 #@! TD*
G04 APERTURE END LIST*
D10*
X21023000Y17840900D03*
X23173000Y17840900D03*
D11*
X25527000Y18917900D03*
X25527000Y17017900D03*
D12*
X27813000Y17055400D03*
X27813000Y18880400D03*
D13*
X25588000Y8442900D03*
X23688000Y8442900D03*
D11*
X21336000Y9392900D03*
X21336000Y7492900D03*
D14*
X31132000Y11750000D03*
X31132000Y13650000D03*
D11*
X18669000Y9392900D03*
X18669000Y7492900D03*
X18542000Y18917900D03*
X18542000Y17017900D03*
D15*
X38390000Y3302000D03*
X42890000Y3302000D03*
D16*
X37135000Y5792000D03*
X44145000Y5792000D03*
D17*
X48260000Y2540000D03*
D18*
X39436000Y9144000D03*
X41336000Y9144000D03*
D11*
X18669000Y13837900D03*
X18669000Y11937900D03*
D19*
X12720000Y17145000D03*
D20*
X15260000Y15875000D03*
X12720000Y14605000D03*
X15260000Y13335000D03*
X12720000Y12065000D03*
X15260000Y10795000D03*
X12720000Y9525000D03*
X15260000Y8255000D03*
D21*
X34544000Y18034000D03*
X31244000Y18034000D03*
D17*
X2540000Y2540000D03*
D11*
X21336000Y13837900D03*
X21336000Y11937900D03*
D17*
X48260000Y22860000D03*
D12*
X28067000Y7530400D03*
X28067000Y9355400D03*
D21*
X34560000Y8315900D03*
X31260000Y8315900D03*
D22*
X27835000Y12887900D03*
X24235000Y12887900D03*
D17*
X2540000Y22860000D03*
D23*
X36460000Y13650000D03*
X36460000Y11750000D03*
D24*
X26035000Y11430000D03*
D25*
X36460000Y11750000D02*
X36460000Y10215900D01*
X29718000Y8255000D02*
X29718000Y10336000D01*
X36460000Y10215900D02*
X34560000Y8315900D01*
X28067000Y7530400D02*
X28993400Y7530400D01*
X31132000Y11750000D02*
X36460000Y11750000D01*
X26500500Y7530400D02*
X25588000Y8442900D01*
X29718000Y10336000D02*
X31132000Y11750000D01*
X28067000Y7530400D02*
X26500500Y7530400D01*
X28993400Y7530400D02*
X29718000Y8255000D01*
X22286000Y12887900D02*
X21336000Y13837900D01*
X26035000Y11430000D02*
X25692900Y11430000D01*
X31132000Y13650000D02*
X36460000Y13650000D01*
X36460000Y16118000D02*
X34544000Y18034000D01*
X24235000Y12887900D02*
X22286000Y12887900D01*
X25692900Y11430000D02*
X24235000Y12887900D01*
X16896100Y12065000D02*
X18669000Y13837900D01*
X36460000Y13650000D02*
X36460000Y16118000D01*
X18669000Y13837900D02*
X21336000Y13837900D01*
X12720000Y12065000D02*
X16896100Y12065000D01*
X18663900Y9398000D02*
X18669000Y9392900D01*
X15260000Y10795000D02*
X16657000Y9398000D01*
X22286000Y8442900D02*
X21336000Y9392900D01*
X16657000Y9398000D02*
X18663900Y9398000D01*
X23688000Y8442900D02*
X22286000Y8442900D01*
X21336000Y9392900D02*
X18669000Y9392900D01*
X27835000Y9587400D02*
X28067000Y9355400D01*
X27813000Y17055400D02*
X27813000Y12909900D01*
X27835000Y12887900D02*
X27835000Y9587400D01*
X27813000Y12909900D02*
X27835000Y12887900D01*
X24250000Y18917900D02*
X23173000Y17840900D01*
X25527000Y18917900D02*
X24250000Y18917900D01*
X25564500Y18880400D02*
X25527000Y18917900D01*
X27813000Y18880400D02*
X25564500Y18880400D01*
X12720000Y17419000D02*
X12720000Y17145000D01*
X18542000Y18917900D02*
X14218900Y18917900D01*
X19619000Y17840900D02*
X18542000Y18917900D01*
X14218900Y18917900D02*
X12720000Y17419000D01*
X21023000Y17840900D02*
X19619000Y17840900D01*
X39436000Y9144000D02*
X39436000Y4348000D01*
X39436000Y4348000D02*
X38390000Y3302000D01*
G04 #@! TA.AperFunction,Conductor*
G36*
X46224008Y24871498D02*
G01*
X46270501Y24817842D01*
X46280605Y24747568D01*
X46251111Y24682988D01*
X46249093Y24680837D01*
X46249131Y24680803D01*
X46241517Y24672346D01*
X46042766Y24422929D01*
X46038410Y24416730D01*
X45871059Y24145236D01*
X45867479Y24138560D01*
X45733956Y23848926D01*
X45731206Y23841875D01*
X45633444Y23538292D01*
X45631561Y23530959D01*
X45570979Y23217830D01*
X45569992Y23210330D01*
X45547467Y22892198D01*
X45547388Y22884617D01*
X45563245Y22566086D01*
X45564076Y22558557D01*
X45618085Y22244241D01*
X45619818Y22236854D01*
X45711196Y21931305D01*
X45713799Y21924192D01*
X45841227Y21631827D01*
X45844669Y21625071D01*
X46006296Y21350135D01*
X46010519Y21343850D01*
X46161463Y21146066D01*
X46172989Y21137604D01*
X46185054Y21144265D01*
X48170905Y23130115D01*
X48233217Y23164141D01*
X48304033Y23159076D01*
X48349095Y23130115D01*
X48530115Y22949095D01*
X48564141Y22886783D01*
X48559076Y22815968D01*
X48530115Y22770905D01*
X46545818Y20786607D01*
X46538703Y20773577D01*
X46546227Y20763146D01*
X46685483Y20650980D01*
X46691657Y20646592D01*
X46962271Y20477822D01*
X46968931Y20474206D01*
X47257852Y20339173D01*
X47264905Y20336380D01*
X47567970Y20237030D01*
X47575282Y20235112D01*
X47888092Y20172891D01*
X47895590Y20171863D01*
X48213610Y20147672D01*
X48221173Y20147554D01*
X48539785Y20161743D01*
X48547326Y20162535D01*
X48861924Y20214899D01*
X48869302Y20216589D01*
X49175355Y20306375D01*
X49182450Y20308929D01*
X49475496Y20434831D01*
X49482263Y20438235D01*
X49758042Y20598420D01*
X49764349Y20602610D01*
X50018895Y20794774D01*
X50024651Y20799689D01*
X50078053Y20851169D01*
X50140978Y20884046D01*
X50211689Y20877684D01*
X50267735Y20834102D01*
X50291500Y20760455D01*
X50291500Y4642960D01*
X50271498Y4574839D01*
X50217842Y4528346D01*
X50147568Y4518242D01*
X50082988Y4547736D01*
X50076172Y4554098D01*
X50067415Y4562900D01*
X50061762Y4567937D01*
X49811298Y4765387D01*
X49805075Y4769712D01*
X49532702Y4935643D01*
X49526025Y4939178D01*
X49235686Y5071187D01*
X49228616Y5073901D01*
X48924537Y5170068D01*
X48917186Y5171915D01*
X48603746Y5230858D01*
X48596237Y5231806D01*
X48277989Y5252665D01*
X48270424Y5252705D01*
X47951964Y5235179D01*
X47944450Y5234310D01*
X47630405Y5178652D01*
X47623044Y5176885D01*
X47317980Y5083908D01*
X47310860Y5081260D01*
X47019182Y4952310D01*
X47012445Y4948833D01*
X46738355Y4785767D01*
X46732091Y4781510D01*
X46546385Y4638238D01*
X46537917Y4626577D01*
X46544520Y4614691D01*
X48530115Y2629095D01*
X48564141Y2566783D01*
X48559076Y2495967D01*
X48530115Y2450905D01*
X48349095Y2269885D01*
X48286783Y2235859D01*
X48215968Y2240924D01*
X48170905Y2269885D01*
X46186445Y4254344D01*
X46173510Y4261408D01*
X46162949Y4253748D01*
X46042766Y4102928D01*
X46038410Y4096730D01*
X45871059Y3825236D01*
X45867479Y3818560D01*
X45733956Y3528926D01*
X45731206Y3521875D01*
X45633444Y3218292D01*
X45631561Y3210959D01*
X45570979Y2897830D01*
X45569992Y2890330D01*
X45547467Y2572198D01*
X45547388Y2564617D01*
X45563245Y2246086D01*
X45564076Y2238557D01*
X45618085Y1924241D01*
X45619818Y1916854D01*
X45711196Y1611305D01*
X45713799Y1604192D01*
X45841227Y1311827D01*
X45844669Y1305071D01*
X46006296Y1030135D01*
X46010519Y1023850D01*
X46204010Y770316D01*
X46208961Y764580D01*
X46250031Y722421D01*
X46283238Y659669D01*
X46277246Y588926D01*
X46233959Y532652D01*
X46167120Y508714D01*
X46159777Y508500D01*
X4643159Y508500D01*
X4575038Y528502D01*
X4528545Y582158D01*
X4518441Y652432D01*
X4545446Y714050D01*
X4740751Y953945D01*
X4745164Y960086D01*
X4915349Y1229813D01*
X4919005Y1236464D01*
X5055544Y1524665D01*
X5058375Y1531705D01*
X5159306Y1834233D01*
X5161270Y1841567D01*
X5225122Y2154011D01*
X5226194Y2161535D01*
X5252173Y2480949D01*
X5252378Y2485424D01*
X5252927Y2537779D01*
X5252817Y2542211D01*
X5233529Y2862147D01*
X5232621Y2869649D01*
X5175319Y3183407D01*
X5173518Y3190740D01*
X5078935Y3495345D01*
X5076263Y3502417D01*
X4945781Y3793430D01*
X4942264Y3800157D01*
X4777771Y4073379D01*
X4773481Y4079623D01*
X4637991Y4253353D01*
X4626199Y4261822D01*
X4614486Y4255275D01*
X2629095Y2269885D01*
X2566783Y2235859D01*
X2495967Y2240924D01*
X2450905Y2269885D01*
X2269885Y2450905D01*
X2235859Y2513217D01*
X2240924Y2584032D01*
X2269885Y2629095D01*
X4216165Y4575376D01*
X36283621Y4575376D01*
X36287988Y4569226D01*
X36487563Y4452603D01*
X36496846Y4448156D01*
X36715007Y4364848D01*
X36724905Y4361972D01*
X36953744Y4315415D01*
X36963972Y4314196D01*
X37197340Y4305638D01*
X37207626Y4306105D01*
X37311114Y4319362D01*
X37381224Y4308177D01*
X37434158Y4260864D01*
X37453109Y4192444D01*
X37432061Y4124639D01*
X37425508Y4115881D01*
X37423020Y4113393D01*
X37296814Y3933151D01*
X37294493Y3928173D01*
X37294491Y3928170D01*
X37246492Y3825236D01*
X37203823Y3733733D01*
X37146874Y3521197D01*
X37127697Y3302000D01*
X37146874Y3082803D01*
X37203823Y2870267D01*
X37296814Y2670849D01*
X37423020Y2490607D01*
X37578607Y2335020D01*
X37583115Y2331863D01*
X37583118Y2331861D01*
X37753725Y2212401D01*
X37758848Y2208814D01*
X37763830Y2206491D01*
X37763835Y2206488D01*
X37952275Y2118617D01*
X37958267Y2115823D01*
X37963575Y2114401D01*
X37963577Y2114400D01*
X38029683Y2096687D01*
X38170803Y2058874D01*
X38390000Y2039697D01*
X38609197Y2058874D01*
X38750317Y2096687D01*
X38816423Y2114400D01*
X38816425Y2114401D01*
X38821733Y2115823D01*
X38827725Y2118617D01*
X39016165Y2206488D01*
X39016170Y2206491D01*
X39021152Y2208814D01*
X39026275Y2212401D01*
X39083622Y2252556D01*
X42205110Y2252556D01*
X42214406Y2240541D01*
X42254594Y2212401D01*
X42264084Y2206923D01*
X42453456Y2118617D01*
X42463748Y2114871D01*
X42665575Y2060792D01*
X42676370Y2058889D01*
X42884525Y2040677D01*
X42895475Y2040677D01*
X43103630Y2058889D01*
X43114425Y2060792D01*
X43316252Y2114871D01*
X43326544Y2118617D01*
X43515916Y2206923D01*
X43525406Y2212401D01*
X43566432Y2241128D01*
X43574806Y2251604D01*
X43567740Y2265049D01*
X42902811Y2929979D01*
X42888868Y2937592D01*
X42887034Y2937461D01*
X42880420Y2933210D01*
X42211537Y2264326D01*
X42205110Y2252556D01*
X39083622Y2252556D01*
X39196882Y2331861D01*
X39196885Y2331863D01*
X39201393Y2335020D01*
X39356980Y2490607D01*
X39483186Y2670849D01*
X39576177Y2870267D01*
X39633126Y3082803D01*
X39651824Y3296525D01*
X41628677Y3296525D01*
X41646889Y3088370D01*
X41648792Y3077575D01*
X41702871Y2875748D01*
X41706617Y2865456D01*
X41794923Y2676084D01*
X41800401Y2666594D01*
X41829128Y2625568D01*
X41839604Y2617194D01*
X41853049Y2624260D01*
X42517979Y3289189D01*
X42525592Y3303132D01*
X42525461Y3304966D01*
X42521210Y3311580D01*
X41852326Y3980463D01*
X41840556Y3986890D01*
X41828541Y3977594D01*
X41800401Y3937406D01*
X41794923Y3927916D01*
X41706617Y3738544D01*
X41702871Y3728252D01*
X41648792Y3526425D01*
X41646889Y3515630D01*
X41628677Y3307475D01*
X41628677Y3296525D01*
X39651824Y3296525D01*
X39652303Y3302000D01*
X39651824Y3307475D01*
X39651824Y3307484D01*
X39649849Y3330055D01*
X39663837Y3399660D01*
X39686274Y3430133D01*
X39991762Y3735621D01*
X39999529Y3742764D01*
X40032479Y3770609D01*
X40037693Y3775015D01*
X40085167Y3837108D01*
X40086976Y3839416D01*
X40135969Y3900350D01*
X40139004Y3906465D01*
X40140302Y3908494D01*
X40140628Y3908960D01*
X40141029Y3909605D01*
X40141302Y3910100D01*
X40142553Y3912166D01*
X40146697Y3917586D01*
X40179696Y3988354D01*
X40181030Y3991125D01*
X40212732Y4054989D01*
X40215767Y4061102D01*
X40217419Y4067727D01*
X40218253Y4069994D01*
X40218472Y4070519D01*
X40218721Y4071223D01*
X40218883Y4071773D01*
X40219661Y4074057D01*
X40222543Y4080239D01*
X40224031Y4086897D01*
X40224034Y4086905D01*
X40239580Y4156453D01*
X40240288Y4159449D01*
X40257532Y4228611D01*
X40257532Y4228612D01*
X40259184Y4235237D01*
X40259375Y4242058D01*
X40259705Y4244469D01*
X40259903Y4245573D01*
X40260563Y4250328D01*
X40261693Y4255384D01*
X40262000Y4260875D01*
X40262000Y4334310D01*
X40262049Y4337827D01*
X40262456Y4352396D01*
X42205194Y4352396D01*
X42212260Y4338951D01*
X42890000Y3661210D01*
X43927671Y2623540D01*
X43939445Y2617111D01*
X43951459Y2626407D01*
X43979599Y2666594D01*
X43985077Y2676084D01*
X44073383Y2865456D01*
X44077129Y2875748D01*
X44131208Y3077575D01*
X44133111Y3088370D01*
X44151323Y3296525D01*
X44151323Y3307475D01*
X44133111Y3515630D01*
X44131208Y3526425D01*
X44077129Y3728252D01*
X44073383Y3738544D01*
X43985079Y3927914D01*
X43979596Y3937409D01*
X43856596Y4113071D01*
X43857549Y4113738D01*
X43831419Y4173454D01*
X43842640Y4243559D01*
X43889982Y4296467D01*
X43958412Y4315382D01*
X43971326Y4314512D01*
X43973983Y4314195D01*
X44207340Y4305638D01*
X44217626Y4306105D01*
X44449262Y4335778D01*
X44459340Y4337920D01*
X44683014Y4405026D01*
X44692612Y4408788D01*
X44902324Y4511524D01*
X44911169Y4516797D01*
X44983869Y4568653D01*
X44992270Y4579354D01*
X44985283Y4592507D01*
X44157812Y5419978D01*
X44143868Y5427592D01*
X44142035Y5427461D01*
X44135420Y5423210D01*
X43288069Y4575859D01*
X43287224Y4576704D01*
X43252708Y4542191D01*
X43183333Y4527101D01*
X43159716Y4531073D01*
X43114428Y4543207D01*
X43103630Y4545111D01*
X42895475Y4563323D01*
X42884525Y4563323D01*
X42676370Y4545111D01*
X42665575Y4543208D01*
X42463748Y4489129D01*
X42453456Y4485383D01*
X42264084Y4397077D01*
X42254594Y4391599D01*
X42213568Y4362872D01*
X42205194Y4352396D01*
X40262456Y4352396D01*
X40264004Y4407814D01*
X40264004Y4407818D01*
X40264194Y4414635D01*
X40262915Y4421339D01*
X40262406Y4427665D01*
X40262000Y4437772D01*
X40262000Y5823201D01*
X42657658Y5823201D01*
X42671102Y5590058D01*
X42672535Y5579856D01*
X42723873Y5352051D01*
X42726956Y5342211D01*
X42814814Y5125844D01*
X42819457Y5116653D01*
X42920555Y4951675D01*
X42931011Y4942215D01*
X42939789Y4945999D01*
X43772978Y5779188D01*
X43779356Y5790868D01*
X44509408Y5790868D01*
X44509539Y5789035D01*
X44513790Y5782420D01*
X45345045Y4951165D01*
X45357055Y4944606D01*
X45368794Y4953574D01*
X45417518Y5021381D01*
X45422829Y5030220D01*
X45526291Y5239558D01*
X45530089Y5249151D01*
X45597974Y5472587D01*
X45600151Y5482657D01*
X45630869Y5715985D01*
X45631388Y5722660D01*
X45633001Y5788636D01*
X45632807Y5795353D01*
X45613525Y6029892D01*
X45611842Y6040054D01*
X45554952Y6266547D01*
X45551634Y6276294D01*
X45458513Y6490458D01*
X45453646Y6499533D01*
X45368465Y6631204D01*
X45357779Y6640407D01*
X45348214Y6636004D01*
X44517022Y5804812D01*
X44509408Y5790868D01*
X43779356Y5790868D01*
X43780592Y5793132D01*
X43780461Y5794965D01*
X43776210Y5801580D01*
X42944892Y6632898D01*
X42933356Y6639198D01*
X42921073Y6629574D01*
X42854036Y6531302D01*
X42848943Y6522338D01*
X42750619Y6310517D01*
X42747062Y6300849D01*
X42684657Y6075822D01*
X42682726Y6065702D01*
X42657910Y5833490D01*
X42657658Y5823201D01*
X40262000Y5823201D01*
X40262000Y7004858D01*
X43296938Y7004858D01*
X43303684Y6992526D01*
X44132188Y6164022D01*
X44146132Y6156408D01*
X44147965Y6156539D01*
X44154580Y6160790D01*
X44987391Y6993601D01*
X44994412Y7006457D01*
X44986639Y7017125D01*
X44972548Y7028254D01*
X44963970Y7033953D01*
X44759526Y7146811D01*
X44750126Y7151036D01*
X44529993Y7228989D01*
X44520036Y7231619D01*
X44290129Y7272573D01*
X44279878Y7273542D01*
X44046367Y7276395D01*
X44036083Y7275675D01*
X43805253Y7240353D01*
X43795225Y7237964D01*
X43573263Y7165416D01*
X43563753Y7161419D01*
X43356624Y7053595D01*
X43347904Y7048103D01*
X43305391Y7016183D01*
X43296938Y7004858D01*
X40262000Y7004858D01*
X40262000Y8119544D01*
X40282002Y8187665D01*
X40335658Y8234158D01*
X40405932Y8244262D01*
X40470512Y8214768D01*
X40486748Y8197806D01*
X40493101Y8189790D01*
X40607829Y8075261D01*
X40619240Y8066249D01*
X40757243Y7981184D01*
X40770424Y7975037D01*
X40924710Y7923862D01*
X40938086Y7920995D01*
X41032438Y7911328D01*
X41038854Y7911000D01*
X41063885Y7911000D01*
X41079124Y7915475D01*
X41080329Y7916865D01*
X41082000Y7924548D01*
X41082000Y7929116D01*
X41590000Y7929116D01*
X41594475Y7913877D01*
X41595865Y7912672D01*
X41603548Y7911001D01*
X41633095Y7911001D01*
X41639614Y7911338D01*
X41735206Y7921257D01*
X41748600Y7924149D01*
X41902784Y7975588D01*
X41915962Y7981761D01*
X42053807Y8067063D01*
X42065208Y8076099D01*
X42179739Y8190829D01*
X42188751Y8202240D01*
X42273816Y8340243D01*
X42279963Y8353424D01*
X42331138Y8507710D01*
X42334005Y8521086D01*
X42343672Y8615438D01*
X42344000Y8621854D01*
X42344000Y8871885D01*
X42339525Y8887124D01*
X42338135Y8888329D01*
X42330452Y8890000D01*
X41608115Y8890000D01*
X41592876Y8885525D01*
X41591671Y8884135D01*
X41590000Y8876452D01*
X41590000Y7929116D01*
X41082000Y7929116D01*
X41082000Y9416115D01*
X41590000Y9416115D01*
X41594475Y9400876D01*
X41595865Y9399671D01*
X41603548Y9398000D01*
X42325884Y9398000D01*
X42341123Y9402475D01*
X42342328Y9403865D01*
X42343999Y9411548D01*
X42343999Y9666095D01*
X42343662Y9672614D01*
X42333743Y9768206D01*
X42330851Y9781600D01*
X42279412Y9935784D01*
X42273239Y9948962D01*
X42187937Y10086807D01*
X42178901Y10098208D01*
X42064171Y10212739D01*
X42052760Y10221751D01*
X41914757Y10306816D01*
X41901576Y10312963D01*
X41747290Y10364138D01*
X41733914Y10367005D01*
X41639562Y10376672D01*
X41633145Y10377000D01*
X41608115Y10377000D01*
X41592876Y10372525D01*
X41591671Y10371135D01*
X41590000Y10363452D01*
X41590000Y9416115D01*
X41082000Y9416115D01*
X41082000Y10358884D01*
X41077525Y10374123D01*
X41076135Y10375328D01*
X41068452Y10376999D01*
X41038905Y10376999D01*
X41032386Y10376662D01*
X40936794Y10366743D01*
X40923400Y10363851D01*
X40769216Y10312412D01*
X40756038Y10306239D01*
X40618193Y10220937D01*
X40606792Y10211901D01*
X40492262Y10097172D01*
X40485206Y10088238D01*
X40427288Y10047177D01*
X40356365Y10043947D01*
X40294954Y10079574D01*
X40288154Y10087407D01*
X40284478Y10093348D01*
X40159303Y10218305D01*
X40055103Y10282535D01*
X40014968Y10307275D01*
X40014966Y10307276D01*
X40008738Y10311115D01*
X39928995Y10337564D01*
X39847389Y10364632D01*
X39847387Y10364632D01*
X39840861Y10366797D01*
X39834025Y10367497D01*
X39834022Y10367498D01*
X39790969Y10371909D01*
X39736400Y10377500D01*
X39135600Y10377500D01*
X39132354Y10377163D01*
X39132350Y10377163D01*
X39036692Y10367238D01*
X39036688Y10367237D01*
X39029834Y10366526D01*
X39023298Y10364345D01*
X39023296Y10364345D01*
X38935384Y10335015D01*
X38862054Y10310550D01*
X38711652Y10217478D01*
X38586695Y10092303D01*
X38582855Y10086073D01*
X38582854Y10086072D01*
X38497831Y9948139D01*
X38493885Y9941738D01*
X38476528Y9889408D01*
X38448732Y9805604D01*
X38438203Y9773861D01*
X38437503Y9767025D01*
X38437502Y9767022D01*
X38437083Y9762931D01*
X38427500Y9669400D01*
X38427500Y8618600D01*
X38427837Y8615354D01*
X38427837Y8615350D01*
X38437618Y8521086D01*
X38438474Y8512834D01*
X38440655Y8506298D01*
X38440655Y8506296D01*
X38454963Y8463410D01*
X38494450Y8345054D01*
X38582826Y8202240D01*
X38587522Y8194652D01*
X38586095Y8193769D01*
X38609383Y8136231D01*
X38610000Y8123779D01*
X38610000Y6669126D01*
X38589998Y6601005D01*
X38536342Y6554512D01*
X38466068Y6544408D01*
X38401488Y6573902D01*
X38378207Y6600687D01*
X38358464Y6631205D01*
X38347779Y6640407D01*
X38338214Y6636004D01*
X37507022Y5804812D01*
X37499408Y5790868D01*
X37499539Y5789035D01*
X37503790Y5782420D01*
X38335045Y4951165D01*
X38347055Y4944606D01*
X38358794Y4953574D01*
X38381677Y4985419D01*
X38437671Y5029067D01*
X38508375Y5035513D01*
X38571339Y5002711D01*
X38606574Y4941074D01*
X38610000Y4911893D01*
X38610000Y4742331D01*
X38589998Y4674210D01*
X38573095Y4653236D01*
X38518133Y4598274D01*
X38455821Y4564248D01*
X38418055Y4561849D01*
X38395484Y4563824D01*
X38395475Y4563824D01*
X38390000Y4564303D01*
X38170803Y4545126D01*
X38165490Y4543702D01*
X38165482Y4543701D01*
X38118527Y4531119D01*
X38047551Y4532808D01*
X37988755Y4572601D01*
X37975782Y4592008D01*
X37147812Y5419978D01*
X37133868Y5427592D01*
X37132035Y5427461D01*
X37125420Y5423210D01*
X36290881Y4588671D01*
X36283621Y4575376D01*
X4216165Y4575376D01*
X4254559Y4613770D01*
X4261571Y4626611D01*
X4253777Y4637299D01*
X4091298Y4765387D01*
X4085075Y4769712D01*
X3812702Y4935643D01*
X3806025Y4939178D01*
X3515686Y5071187D01*
X3508616Y5073901D01*
X3204537Y5170068D01*
X3197186Y5171915D01*
X2883746Y5230858D01*
X2876237Y5231806D01*
X2557989Y5252665D01*
X2550424Y5252705D01*
X2231964Y5235179D01*
X2224450Y5234310D01*
X1910405Y5178652D01*
X1903044Y5176885D01*
X1597980Y5083908D01*
X1590860Y5081260D01*
X1299182Y4952310D01*
X1292445Y4948833D01*
X1018355Y4785767D01*
X1012091Y4781510D01*
X759577Y4586697D01*
X753876Y4581724D01*
X722893Y4551224D01*
X660315Y4517690D01*
X589542Y4523311D01*
X533042Y4566303D01*
X508754Y4633016D01*
X508500Y4641017D01*
X508500Y6852297D01*
X4260743Y6852297D01*
X4261302Y6848053D01*
X4261302Y6848049D01*
X4275019Y6743857D01*
X4298268Y6567266D01*
X4299401Y6563126D01*
X4299401Y6563124D01*
X4310559Y6522338D01*
X4374129Y6289964D01*
X4375813Y6286016D01*
X4469786Y6065702D01*
X4486923Y6025524D01*
X4498693Y6005858D01*
X4628698Y5788636D01*
X4634561Y5778839D01*
X4814313Y5554472D01*
X5022851Y5356577D01*
X5256317Y5188814D01*
X5260112Y5186805D01*
X5260113Y5186804D01*
X5278847Y5176885D01*
X5510392Y5054288D01*
X5780373Y4955489D01*
X6061264Y4894245D01*
X6089841Y4891996D01*
X6284282Y4876693D01*
X6284291Y4876693D01*
X6286739Y4876500D01*
X6442271Y4876500D01*
X6444407Y4876646D01*
X6444418Y4876646D01*
X6652548Y4890835D01*
X6652554Y4890836D01*
X6656825Y4891127D01*
X6661020Y4891996D01*
X6661022Y4891996D01*
X6871786Y4935643D01*
X6938342Y4949426D01*
X7209343Y5045393D01*
X7464812Y5177250D01*
X7468313Y5179711D01*
X7468317Y5179713D01*
X7582418Y5259905D01*
X7700023Y5342559D01*
X7910622Y5538260D01*
X8092713Y5760732D01*
X8130994Y5823201D01*
X35647658Y5823201D01*
X35661102Y5590058D01*
X35662535Y5579856D01*
X35713873Y5352051D01*
X35716956Y5342211D01*
X35804814Y5125844D01*
X35809457Y5116653D01*
X35910555Y4951675D01*
X35921011Y4942215D01*
X35929789Y4945999D01*
X36762978Y5779188D01*
X36770592Y5793132D01*
X36770461Y5794965D01*
X36766210Y5801580D01*
X35934892Y6632898D01*
X35923356Y6639198D01*
X35911073Y6629574D01*
X35844036Y6531302D01*
X35838943Y6522338D01*
X35740619Y6310517D01*
X35737062Y6300849D01*
X35674657Y6075822D01*
X35672726Y6065702D01*
X35647910Y5833490D01*
X35647658Y5823201D01*
X8130994Y5823201D01*
X8242927Y6005858D01*
X8358483Y6269102D01*
X8437244Y6545594D01*
X8477751Y6830216D01*
X8477845Y6848049D01*
X8479235Y7113417D01*
X8479235Y7113424D01*
X8479257Y7117703D01*
X8472976Y7165416D01*
X8456936Y7287251D01*
X8441732Y7402734D01*
X8365871Y7680036D01*
X8343620Y7732203D01*
X8254763Y7940524D01*
X8254761Y7940528D01*
X8253077Y7944476D01*
X8122662Y8162384D01*
X8107643Y8187479D01*
X8107640Y8187483D01*
X8105439Y8191161D01*
X7925687Y8415528D01*
X7863186Y8474839D01*
X12034393Y8474839D01*
X12043687Y8462825D01*
X12084088Y8434536D01*
X12093584Y8429053D01*
X12283113Y8340674D01*
X12293405Y8336928D01*
X12495401Y8282804D01*
X12506196Y8280901D01*
X12714525Y8262674D01*
X12725475Y8262674D01*
X12933804Y8280901D01*
X12944599Y8282804D01*
X13146595Y8336928D01*
X13156887Y8340674D01*
X13346416Y8429053D01*
X13355912Y8434536D01*
X13397148Y8463410D01*
X13405523Y8473888D01*
X13398457Y8487332D01*
X12732811Y9152979D01*
X12718868Y9160592D01*
X12717034Y9160461D01*
X12710420Y9156210D01*
X12040820Y8486609D01*
X12034393Y8474839D01*
X7863186Y8474839D01*
X7761228Y8571594D01*
X7720258Y8610473D01*
X7720255Y8610475D01*
X7717149Y8613423D01*
X7527064Y8750013D01*
X7487172Y8778679D01*
X7487171Y8778680D01*
X7483683Y8781186D01*
X7461843Y8792750D01*
X7373749Y8839393D01*
X7229608Y8915712D01*
X7085905Y8968300D01*
X6963658Y9013036D01*
X6963656Y9013037D01*
X6959627Y9014511D01*
X6678736Y9075755D01*
X6647685Y9078199D01*
X6455718Y9093307D01*
X6455709Y9093307D01*
X6453261Y9093500D01*
X6297729Y9093500D01*
X6295593Y9093354D01*
X6295582Y9093354D01*
X6087452Y9079165D01*
X6087446Y9079164D01*
X6083175Y9078873D01*
X6078980Y9078004D01*
X6078978Y9078004D01*
X5942417Y9049724D01*
X5801658Y9020574D01*
X5530657Y8924607D01*
X5526848Y8922641D01*
X5378010Y8845820D01*
X5275188Y8792750D01*
X5271687Y8790289D01*
X5271683Y8790287D01*
X5232465Y8762724D01*
X5039977Y8627441D01*
X4974827Y8566900D01*
X4832907Y8435019D01*
X4829378Y8431740D01*
X4647287Y8209268D01*
X4497073Y7964142D01*
X4381517Y7700898D01*
X4380342Y7696771D01*
X4380341Y7696770D01*
X4357474Y7616494D01*
X4302756Y7424406D01*
X4281589Y7275675D01*
X4264930Y7158619D01*
X4262249Y7139784D01*
X4262227Y7135495D01*
X4262226Y7135488D01*
X4260765Y6856583D01*
X4260743Y6852297D01*
X508500Y6852297D01*
X508500Y9519525D01*
X11457674Y9519525D01*
X11475901Y9311196D01*
X11477804Y9300401D01*
X11531928Y9098405D01*
X11535674Y9088113D01*
X11624054Y8898583D01*
X11629534Y8889093D01*
X11658411Y8847851D01*
X11668887Y8839477D01*
X11682334Y8846545D01*
X12347979Y9512189D01*
X12354356Y9523868D01*
X13084408Y9523868D01*
X13084539Y9522034D01*
X13088790Y9515420D01*
X13758391Y8845820D01*
X13770161Y8839393D01*
X13782176Y8848689D01*
X13810466Y8889093D01*
X13815946Y8898583D01*
X13904326Y9088113D01*
X13908072Y9098405D01*
X13962196Y9300401D01*
X13964099Y9311196D01*
X13982326Y9519525D01*
X13982326Y9530475D01*
X13964099Y9738804D01*
X13962196Y9749599D01*
X13908072Y9951595D01*
X13904326Y9961887D01*
X13815946Y10151417D01*
X13810466Y10160907D01*
X13781589Y10202149D01*
X13771113Y10210523D01*
X13757666Y10203455D01*
X13092021Y9537811D01*
X13084408Y9523868D01*
X12354356Y9523868D01*
X12355592Y9526132D01*
X12355461Y9527966D01*
X12351210Y9534580D01*
X11681609Y10204180D01*
X11669839Y10210607D01*
X11657824Y10201311D01*
X11629534Y10160907D01*
X11624054Y10151417D01*
X11535674Y9961887D01*
X11531928Y9951595D01*
X11477804Y9749599D01*
X11475901Y9738804D01*
X11457674Y9530475D01*
X11457674Y9519525D01*
X508500Y9519525D01*
X508500Y12065000D01*
X11456693Y12065000D01*
X11475885Y11845629D01*
X11532880Y11632924D01*
X11567166Y11559398D01*
X11623618Y11438334D01*
X11623621Y11438329D01*
X11625944Y11433347D01*
X11629100Y11428840D01*
X11629101Y11428838D01*
X11735576Y11276777D01*
X11752251Y11252962D01*
X11907962Y11097251D01*
X11912471Y11094094D01*
X11912473Y11094092D01*
X11925245Y11085149D01*
X12088346Y10970944D01*
X12093328Y10968621D01*
X12093333Y10968618D01*
X12221359Y10908919D01*
X12274644Y10862002D01*
X12294105Y10793724D01*
X12273563Y10725764D01*
X12221359Y10680529D01*
X12093583Y10620946D01*
X12084093Y10615466D01*
X12042851Y10586589D01*
X12034477Y10576113D01*
X12041545Y10562666D01*
X12707189Y9897021D01*
X12721132Y9889408D01*
X12722966Y9889539D01*
X12729580Y9893790D01*
X13399180Y10563391D01*
X13405607Y10575161D01*
X13396313Y10587175D01*
X13355912Y10615464D01*
X13346416Y10620947D01*
X13218641Y10680529D01*
X13165356Y10727446D01*
X13145895Y10795724D01*
X13166437Y10863684D01*
X13218641Y10908919D01*
X13346667Y10968618D01*
X13346672Y10968621D01*
X13351654Y10970944D01*
X13514755Y11085149D01*
X13527527Y11094092D01*
X13527529Y11094094D01*
X13532038Y11097251D01*
X13636882Y11202095D01*
X13699194Y11236121D01*
X13725977Y11239000D01*
X13911867Y11239000D01*
X13979988Y11218998D01*
X14026481Y11165342D01*
X14036585Y11095068D01*
X14033574Y11080389D01*
X14017308Y11019684D01*
X14017307Y11019677D01*
X14015885Y11014371D01*
X13996693Y10795000D01*
X14015885Y10575629D01*
X14072880Y10362924D01*
X14104284Y10295577D01*
X14163618Y10168334D01*
X14163621Y10168329D01*
X14165944Y10163347D01*
X14169100Y10158840D01*
X14169101Y10158838D01*
X14284621Y9993859D01*
X14292251Y9982962D01*
X14447962Y9827251D01*
X14628346Y9700944D01*
X14633328Y9698621D01*
X14633333Y9698618D01*
X14760768Y9639195D01*
X14814053Y9592278D01*
X14833514Y9524001D01*
X14812972Y9456041D01*
X14760768Y9410805D01*
X14633334Y9351382D01*
X14633329Y9351379D01*
X14628347Y9349056D01*
X14623840Y9345900D01*
X14623838Y9345899D01*
X14452473Y9225908D01*
X14452470Y9225906D01*
X14447962Y9222749D01*
X14292251Y9067038D01*
X14289094Y9062530D01*
X14289092Y9062527D01*
X14191143Y8922641D01*
X14165944Y8886653D01*
X14163621Y8881671D01*
X14163618Y8881666D01*
X14143906Y8839393D01*
X14072880Y8687076D01*
X14015885Y8474371D01*
X13996693Y8255000D01*
X14015885Y8035629D01*
X14072880Y7822924D01*
X14113640Y7735514D01*
X14163618Y7628334D01*
X14163621Y7628329D01*
X14165944Y7623347D01*
X14169100Y7618840D01*
X14169101Y7618838D01*
X14278745Y7462251D01*
X14292251Y7442962D01*
X14447962Y7287251D01*
X14452471Y7284094D01*
X14452473Y7284092D01*
X14483201Y7262576D01*
X14628346Y7160944D01*
X14827924Y7067880D01*
X15040629Y7010885D01*
X15260000Y6991693D01*
X15479371Y7010885D01*
X15692076Y7067880D01*
X15891654Y7160944D01*
X15941440Y7195805D01*
X17436001Y7195805D01*
X17436338Y7189286D01*
X17446257Y7093694D01*
X17449149Y7080300D01*
X17500588Y6926116D01*
X17506761Y6912938D01*
X17592063Y6775093D01*
X17601099Y6763692D01*
X17715829Y6649161D01*
X17727240Y6640149D01*
X17865243Y6555084D01*
X17878424Y6548937D01*
X18032710Y6497762D01*
X18046086Y6494895D01*
X18140438Y6485228D01*
X18146854Y6484900D01*
X18396885Y6484900D01*
X18412124Y6489375D01*
X18413329Y6490765D01*
X18415000Y6498448D01*
X18415000Y7220785D01*
X18410525Y7236024D01*
X18409135Y7237229D01*
X18401452Y7238900D01*
X17454116Y7238900D01*
X17438877Y7234425D01*
X17437672Y7233035D01*
X17436001Y7225352D01*
X17436001Y7195805D01*
X15941440Y7195805D01*
X16036799Y7262576D01*
X16067527Y7284092D01*
X16067529Y7284094D01*
X16072038Y7287251D01*
X16227749Y7442962D01*
X16241256Y7462251D01*
X16350899Y7618838D01*
X16350900Y7618840D01*
X16354056Y7623347D01*
X16356379Y7628329D01*
X16356382Y7628334D01*
X16406360Y7735514D01*
X16447120Y7822924D01*
X16504115Y8035629D01*
X16523307Y8255000D01*
X16516165Y8336635D01*
X16507558Y8435019D01*
X16521547Y8504624D01*
X16570947Y8555616D01*
X16633079Y8572000D01*
X16643310Y8572000D01*
X16646827Y8571951D01*
X16716814Y8569996D01*
X16716818Y8569996D01*
X16723635Y8569806D01*
X16730339Y8571085D01*
X16736665Y8571594D01*
X16746772Y8572000D01*
X17642343Y8572000D01*
X17710464Y8551998D01*
X17716832Y8547453D01*
X17720697Y8543595D01*
X17725237Y8540797D01*
X17765825Y8483543D01*
X17769053Y8412620D01*
X17733426Y8351210D01*
X17724932Y8343838D01*
X17714793Y8335802D01*
X17600261Y8221071D01*
X17591249Y8209660D01*
X17506184Y8071657D01*
X17500037Y8058476D01*
X17448862Y7904190D01*
X17445995Y7890814D01*
X17436328Y7796462D01*
X17436000Y7790045D01*
X17436000Y7765015D01*
X17440475Y7749776D01*
X17441865Y7748571D01*
X17449548Y7746900D01*
X18797000Y7746900D01*
X18865121Y7726898D01*
X18911614Y7673242D01*
X18923000Y7620900D01*
X18923000Y6503016D01*
X18927475Y6487777D01*
X18928865Y6486572D01*
X18936548Y6484901D01*
X19191095Y6484901D01*
X19197614Y6485238D01*
X19293206Y6495157D01*
X19306600Y6498049D01*
X19460784Y6549488D01*
X19473962Y6555661D01*
X19611807Y6640963D01*
X19623208Y6649999D01*
X19737739Y6764729D01*
X19746751Y6776140D01*
X19831816Y6914143D01*
X19837963Y6927324D01*
X19882850Y7062653D01*
X19923281Y7121012D01*
X19988845Y7148249D01*
X20058727Y7135715D01*
X20110739Y7087391D01*
X20121967Y7062861D01*
X20167588Y6926116D01*
X20173761Y6912938D01*
X20259063Y6775093D01*
X20268099Y6763692D01*
X20382829Y6649161D01*
X20394240Y6640149D01*
X20532243Y6555084D01*
X20545424Y6548937D01*
X20699710Y6497762D01*
X20713086Y6494895D01*
X20807438Y6485228D01*
X20813854Y6484900D01*
X21063885Y6484900D01*
X21079124Y6489375D01*
X21080329Y6490765D01*
X21082000Y6498448D01*
X21082000Y6503016D01*
X21590000Y6503016D01*
X21594475Y6487777D01*
X21595865Y6486572D01*
X21603548Y6484901D01*
X21858095Y6484901D01*
X21864614Y6485238D01*
X21960206Y6495157D01*
X21973600Y6498049D01*
X22127784Y6549488D01*
X22140962Y6555661D01*
X22278807Y6640963D01*
X22290208Y6649999D01*
X22404739Y6764729D01*
X22413751Y6776140D01*
X22498816Y6914143D01*
X22504963Y6927324D01*
X22556138Y7081610D01*
X22559005Y7094986D01*
X22568672Y7189338D01*
X22569000Y7195754D01*
X22569000Y7220785D01*
X22564525Y7236024D01*
X22563135Y7237229D01*
X22555452Y7238900D01*
X21608115Y7238900D01*
X21592876Y7234425D01*
X21591671Y7233035D01*
X21590000Y7225352D01*
X21590000Y6503016D01*
X21082000Y6503016D01*
X21082000Y7620900D01*
X21102002Y7689021D01*
X21155658Y7735514D01*
X21208000Y7746900D01*
X21797561Y7746900D01*
X21854965Y7730871D01*
X21855586Y7732203D01*
X21926359Y7699201D01*
X21929130Y7697867D01*
X21999102Y7663133D01*
X22005727Y7661481D01*
X22007994Y7660647D01*
X22008519Y7660428D01*
X22009223Y7660179D01*
X22009773Y7660017D01*
X22012057Y7659239D01*
X22018239Y7656357D01*
X22024897Y7654869D01*
X22024905Y7654866D01*
X22094458Y7639319D01*
X22097454Y7638611D01*
X22166615Y7621367D01*
X22166618Y7621367D01*
X22173238Y7619716D01*
X22180059Y7619525D01*
X22182456Y7619197D01*
X22183570Y7618996D01*
X22188344Y7618334D01*
X22193384Y7617207D01*
X22198875Y7616900D01*
X22272289Y7616900D01*
X22275807Y7616851D01*
X22352635Y7614705D01*
X22359342Y7615984D01*
X22365677Y7616494D01*
X22375784Y7616900D01*
X22692990Y7616900D01*
X22761111Y7596898D01*
X22800133Y7557204D01*
X22839522Y7493552D01*
X22964697Y7368595D01*
X22970927Y7364755D01*
X22970928Y7364754D01*
X23108090Y7280206D01*
X23115262Y7275785D01*
X23146919Y7265285D01*
X23276611Y7222268D01*
X23276613Y7222268D01*
X23283139Y7220103D01*
X23289975Y7219403D01*
X23289978Y7219402D01*
X23333031Y7214991D01*
X23387600Y7209400D01*
X23988400Y7209400D01*
X23991646Y7209737D01*
X23991650Y7209737D01*
X24087308Y7219662D01*
X24087312Y7219663D01*
X24094166Y7220374D01*
X24100702Y7222555D01*
X24100704Y7222555D01*
X24250625Y7272573D01*
X24261946Y7276350D01*
X24412348Y7369422D01*
X24537305Y7494597D01*
X24539906Y7498816D01*
X24597030Y7539317D01*
X24667953Y7542549D01*
X24729365Y7506924D01*
X24735922Y7499370D01*
X24739522Y7493552D01*
X24864697Y7368595D01*
X24870927Y7364755D01*
X24870928Y7364754D01*
X25008090Y7280206D01*
X25015262Y7275785D01*
X25046919Y7265285D01*
X25176611Y7222268D01*
X25176613Y7222268D01*
X25183139Y7220103D01*
X25189975Y7219403D01*
X25189978Y7219402D01*
X25233031Y7214991D01*
X25287600Y7209400D01*
X25601170Y7209400D01*
X25669291Y7189398D01*
X25690265Y7172495D01*
X25888115Y6974645D01*
X25895258Y6966878D01*
X25927515Y6928707D01*
X25932939Y6924560D01*
X25932940Y6924559D01*
X25989559Y6881270D01*
X25991962Y6879387D01*
X26052851Y6830431D01*
X26058969Y6827394D01*
X26060985Y6826105D01*
X26061454Y6825777D01*
X26062107Y6825370D01*
X26062602Y6825098D01*
X26064661Y6823851D01*
X26070086Y6819703D01*
X26076273Y6816818D01*
X26140859Y6786701D01*
X26143630Y6785367D01*
X26213602Y6750633D01*
X26220227Y6748981D01*
X26222494Y6748147D01*
X26223019Y6747928D01*
X26223723Y6747679D01*
X26224273Y6747517D01*
X26226557Y6746739D01*
X26232739Y6743857D01*
X26239397Y6742369D01*
X26239405Y6742366D01*
X26308958Y6726819D01*
X26311954Y6726111D01*
X26381115Y6708867D01*
X26381118Y6708867D01*
X26387738Y6707216D01*
X26394559Y6707025D01*
X26396956Y6706697D01*
X26398070Y6706496D01*
X26402844Y6705834D01*
X26407884Y6704707D01*
X26413375Y6704400D01*
X26486789Y6704400D01*
X26490307Y6704351D01*
X26567135Y6702205D01*
X26573842Y6703484D01*
X26580177Y6703994D01*
X26590284Y6704400D01*
X27055974Y6704400D01*
X27124095Y6684398D01*
X27134068Y6677280D01*
X27138516Y6673767D01*
X27143697Y6668595D01*
X27218980Y6622190D01*
X27287090Y6580206D01*
X27294262Y6575785D01*
X27372481Y6549841D01*
X27455611Y6522268D01*
X27455613Y6522268D01*
X27462139Y6520103D01*
X27468975Y6519403D01*
X27468978Y6519402D01*
X27512031Y6514991D01*
X27566600Y6509400D01*
X28567400Y6509400D01*
X28570646Y6509737D01*
X28570650Y6509737D01*
X28666308Y6519662D01*
X28666312Y6519663D01*
X28673166Y6520374D01*
X28679702Y6522555D01*
X28679704Y6522555D01*
X28826475Y6571522D01*
X28840946Y6576350D01*
X28991348Y6669422D01*
X28996521Y6674604D01*
X29002258Y6679151D01*
X29003995Y6676959D01*
X29054998Y6704858D01*
X29065198Y6706649D01*
X29091152Y6710112D01*
X29094143Y6710473D01*
X29135898Y6715009D01*
X29165034Y6718174D01*
X29165036Y6718174D01*
X29171817Y6718911D01*
X29178283Y6721087D01*
X29180633Y6721604D01*
X29181183Y6721701D01*
X29181950Y6721880D01*
X29182485Y6722035D01*
X29184832Y6722611D01*
X29191590Y6723513D01*
X29264942Y6750211D01*
X29267843Y6751226D01*
X29335439Y6773975D01*
X29335446Y6773978D01*
X29341911Y6776154D01*
X29347760Y6779669D01*
X29349953Y6780682D01*
X29350468Y6780894D01*
X29351166Y6781227D01*
X29351667Y6781500D01*
X29353821Y6782560D01*
X29360234Y6784894D01*
X29426202Y6826759D01*
X29428794Y6828359D01*
X29431885Y6830216D01*
X29495744Y6868586D01*
X29500695Y6873267D01*
X29502631Y6874737D01*
X29503562Y6875385D01*
X29507396Y6878285D01*
X29511764Y6881057D01*
X29515864Y6884723D01*
X29567786Y6936645D01*
X29570308Y6939098D01*
X29621182Y6987207D01*
X29621184Y6987209D01*
X29626140Y6991896D01*
X29629974Y6997538D01*
X29634097Y7002382D01*
X29636382Y7004858D01*
X36286938Y7004858D01*
X36293684Y6992526D01*
X37122188Y6164022D01*
X37136132Y6156408D01*
X37137965Y6156539D01*
X37144580Y6160790D01*
X37977391Y6993601D01*
X37984412Y7006457D01*
X37976639Y7017125D01*
X37962548Y7028254D01*
X37953970Y7033953D01*
X37749526Y7146811D01*
X37740126Y7151036D01*
X37519993Y7228989D01*
X37510036Y7231619D01*
X37280129Y7272573D01*
X37269878Y7273542D01*
X37036367Y7276395D01*
X37026083Y7275675D01*
X36795253Y7240353D01*
X36785225Y7237964D01*
X36563263Y7165416D01*
X36553753Y7161419D01*
X36346624Y7053595D01*
X36337904Y7048103D01*
X36295391Y7016183D01*
X36286938Y7004858D01*
X29636382Y7004858D01*
X29640954Y7009812D01*
X30150759Y7519617D01*
X30213071Y7553643D01*
X30283886Y7548578D01*
X30340722Y7506031D01*
X30351958Y7485495D01*
X30352366Y7485718D01*
X30365214Y7462251D01*
X30441715Y7360176D01*
X30454276Y7347615D01*
X30556351Y7271114D01*
X30571946Y7262576D01*
X30692394Y7217422D01*
X30707649Y7213795D01*
X30758514Y7208269D01*
X30765328Y7207900D01*
X30987885Y7207900D01*
X31003124Y7212375D01*
X31004329Y7213765D01*
X31006000Y7221448D01*
X31006000Y7226016D01*
X31514000Y7226016D01*
X31518475Y7210777D01*
X31519865Y7209572D01*
X31527548Y7207901D01*
X31754669Y7207901D01*
X31761490Y7208271D01*
X31812352Y7213795D01*
X31827604Y7217421D01*
X31948054Y7262576D01*
X31963649Y7271114D01*
X32065724Y7347615D01*
X32078285Y7360176D01*
X32154786Y7462251D01*
X32163324Y7477846D01*
X32208478Y7598294D01*
X32212105Y7613549D01*
X32217631Y7664414D01*
X32218000Y7671228D01*
X32218000Y8043785D01*
X32213525Y8059024D01*
X32212135Y8060229D01*
X32204452Y8061900D01*
X31532115Y8061900D01*
X31516876Y8057425D01*
X31515671Y8056035D01*
X31514000Y8048352D01*
X31514000Y7226016D01*
X31006000Y7226016D01*
X31006000Y8588015D01*
X31514000Y8588015D01*
X31518475Y8572776D01*
X31519865Y8571571D01*
X31527548Y8569900D01*
X32199884Y8569900D01*
X32215123Y8574375D01*
X32216328Y8575765D01*
X32217999Y8583448D01*
X32217999Y8960569D01*
X32217629Y8967390D01*
X32212105Y9018252D01*
X32208479Y9033504D01*
X32163324Y9153954D01*
X32154786Y9169549D01*
X32078285Y9271624D01*
X32065724Y9284185D01*
X31963649Y9360686D01*
X31948054Y9369224D01*
X31827606Y9414378D01*
X31812351Y9418005D01*
X31761486Y9423531D01*
X31754672Y9423900D01*
X31532115Y9423900D01*
X31516876Y9419425D01*
X31515671Y9418035D01*
X31514000Y9410352D01*
X31514000Y8588015D01*
X31006000Y8588015D01*
X31006000Y9405784D01*
X31001525Y9421023D01*
X31000135Y9422228D01*
X30992452Y9423899D01*
X30765331Y9423899D01*
X30758510Y9423529D01*
X30707653Y9418006D01*
X30699146Y9415983D01*
X30628246Y9419685D01*
X30570603Y9461131D01*
X30544517Y9527162D01*
X30544000Y9538566D01*
X30544000Y9941668D01*
X30564002Y10009789D01*
X30580904Y10030763D01*
X31254735Y10704595D01*
X31317048Y10738620D01*
X31343831Y10741500D01*
X31657400Y10741500D01*
X31660646Y10741837D01*
X31660650Y10741837D01*
X31756308Y10751762D01*
X31756312Y10751763D01*
X31763166Y10752474D01*
X31769702Y10754655D01*
X31769704Y10754655D01*
X31923998Y10806132D01*
X31930946Y10808450D01*
X32081348Y10901522D01*
X32082231Y10900095D01*
X32139769Y10923383D01*
X32152221Y10924000D01*
X35508000Y10924000D01*
X35576121Y10903998D01*
X35622614Y10850342D01*
X35634000Y10798000D01*
X35634000Y10610230D01*
X35613998Y10542109D01*
X35597095Y10521135D01*
X34537265Y9461305D01*
X34474953Y9427279D01*
X34448170Y9424400D01*
X34061866Y9424400D01*
X33999684Y9417645D01*
X33863295Y9366515D01*
X33746739Y9279161D01*
X33659385Y9162605D01*
X33608255Y9026216D01*
X33601500Y8964034D01*
X33601500Y7667766D01*
X33608255Y7605584D01*
X33659385Y7469195D01*
X33746739Y7352639D01*
X33863295Y7265285D01*
X33999684Y7214155D01*
X34061866Y7207400D01*
X35058134Y7207400D01*
X35120316Y7214155D01*
X35256705Y7265285D01*
X35373261Y7352639D01*
X35460615Y7469195D01*
X35511745Y7605584D01*
X35518500Y7667766D01*
X35518500Y8054069D01*
X35538502Y8122190D01*
X35555405Y8143164D01*
X37015755Y9603515D01*
X37023522Y9610658D01*
X37056480Y9638510D01*
X37061693Y9642915D01*
X37078904Y9665426D01*
X37109130Y9704959D01*
X37111029Y9707382D01*
X37155692Y9762931D01*
X37155693Y9762933D01*
X37159969Y9768251D01*
X37163006Y9774369D01*
X37164295Y9776385D01*
X37164623Y9776854D01*
X37165030Y9777507D01*
X37165302Y9778002D01*
X37166549Y9780061D01*
X37170697Y9785486D01*
X37203700Y9856261D01*
X37205034Y9859033D01*
X37220177Y9889539D01*
X37239767Y9929002D01*
X37241419Y9935627D01*
X37242253Y9937894D01*
X37242472Y9938419D01*
X37242721Y9939123D01*
X37242883Y9939673D01*
X37243661Y9941957D01*
X37246543Y9948139D01*
X37248031Y9954797D01*
X37248034Y9954805D01*
X37263581Y10024358D01*
X37264289Y10027354D01*
X37281533Y10096515D01*
X37281533Y10096518D01*
X37283184Y10103138D01*
X37283375Y10109959D01*
X37283703Y10112356D01*
X37283904Y10113470D01*
X37284566Y10118244D01*
X37285693Y10123284D01*
X37286000Y10128775D01*
X37286000Y10202189D01*
X37286049Y10205707D01*
X37286074Y10206617D01*
X37288195Y10282535D01*
X37286916Y10289242D01*
X37286406Y10295577D01*
X37286000Y10305684D01*
X37286000Y10885734D01*
X37306002Y10953855D01*
X37315121Y10966297D01*
X37418840Y11091007D01*
X37522876Y11276777D01*
X37591316Y11478395D01*
X37595559Y11507653D01*
X37621337Y11685439D01*
X37621337Y11685441D01*
X37621869Y11689109D01*
X37623463Y11750000D01*
X37603981Y11962024D01*
X37602413Y11967584D01*
X37547754Y12161389D01*
X37547753Y12161391D01*
X37546186Y12166948D01*
X37541471Y12176511D01*
X37454570Y12352727D01*
X37452015Y12357908D01*
X37324622Y12528509D01*
X37240118Y12606623D01*
X37203672Y12667551D01*
X37205952Y12738511D01*
X37245077Y12796022D01*
X37278255Y12823616D01*
X37282693Y12827307D01*
X37418840Y12991007D01*
X37522876Y13176777D01*
X37591316Y13378395D01*
X37597042Y13417880D01*
X37621337Y13585439D01*
X37621337Y13585441D01*
X37621869Y13589109D01*
X37623463Y13650000D01*
X37603981Y13862024D01*
X37588357Y13917421D01*
X37547754Y14061389D01*
X37547753Y14061391D01*
X37546186Y14066948D01*
X37516979Y14126175D01*
X37454570Y14252727D01*
X37452015Y14257908D01*
X37324622Y14428509D01*
X37320379Y14432431D01*
X37318364Y14434669D01*
X37287647Y14498677D01*
X37286000Y14518980D01*
X37286000Y16077967D01*
X37286442Y16088511D01*
X37290052Y16131502D01*
X37290623Y16138300D01*
X37280289Y16215743D01*
X37279924Y16218764D01*
X37277357Y16242402D01*
X37271489Y16296417D01*
X37269313Y16302883D01*
X37268796Y16305233D01*
X37268699Y16305782D01*
X37268522Y16306541D01*
X37268364Y16307086D01*
X37267789Y16309425D01*
X37266887Y16316190D01*
X37240169Y16389596D01*
X37239168Y16392455D01*
X37237718Y16396766D01*
X37214246Y16466511D01*
X37210731Y16472361D01*
X37209709Y16474573D01*
X37209501Y16475078D01*
X37209175Y16475761D01*
X37208894Y16476277D01*
X37207840Y16478418D01*
X37205505Y16484834D01*
X37194755Y16501774D01*
X37163669Y16550759D01*
X37162052Y16553377D01*
X37125328Y16614496D01*
X37125327Y16614497D01*
X37121814Y16620344D01*
X37117126Y16625301D01*
X37115657Y16627237D01*
X37115016Y16628160D01*
X37112108Y16632005D01*
X37109342Y16636364D01*
X37105677Y16640464D01*
X37053755Y16692386D01*
X37051302Y16694908D01*
X37003193Y16745782D01*
X37003191Y16745784D01*
X36998504Y16750740D01*
X36992863Y16754574D01*
X36988011Y16758703D01*
X36980581Y16765560D01*
X35539405Y18206735D01*
X35505380Y18269047D01*
X35502500Y18295830D01*
X35502500Y18682134D01*
X35495745Y18744316D01*
X35444615Y18880705D01*
X35357261Y18997261D01*
X35240705Y19084615D01*
X35104316Y19135745D01*
X35042134Y19142500D01*
X34045866Y19142500D01*
X33983684Y19135745D01*
X33847295Y19084615D01*
X33730739Y18997261D01*
X33643385Y18880705D01*
X33592255Y18744316D01*
X33585500Y18682134D01*
X33585500Y17385866D01*
X33592255Y17323684D01*
X33643385Y17187295D01*
X33730739Y17070739D01*
X33847295Y16983385D01*
X33983684Y16932255D01*
X34045866Y16925500D01*
X34432169Y16925500D01*
X34500290Y16905498D01*
X34521264Y16888595D01*
X35597095Y15812765D01*
X35631120Y15750453D01*
X35634000Y15723670D01*
X35634000Y14602000D01*
X35613998Y14533879D01*
X35560342Y14487386D01*
X35508000Y14476000D01*
X32152199Y14476000D01*
X32084078Y14496002D01*
X32082443Y14497169D01*
X32080303Y14499305D01*
X32048385Y14518980D01*
X31935968Y14588275D01*
X31935966Y14588276D01*
X31929738Y14592115D01*
X31849995Y14618564D01*
X31768389Y14645632D01*
X31768387Y14645632D01*
X31761861Y14647797D01*
X31755025Y14648497D01*
X31755022Y14648498D01*
X31711969Y14652909D01*
X31657400Y14658500D01*
X30606600Y14658500D01*
X30603354Y14658163D01*
X30603350Y14658163D01*
X30507692Y14648238D01*
X30507688Y14648237D01*
X30500834Y14647526D01*
X30494298Y14645345D01*
X30494296Y14645345D01*
X30393430Y14611693D01*
X30333054Y14591550D01*
X30182652Y14498478D01*
X30057695Y14373303D01*
X30053855Y14367073D01*
X30053854Y14367072D01*
X29983371Y14252727D01*
X29964885Y14222738D01*
X29952599Y14185697D01*
X29934895Y14132319D01*
X29909203Y14054861D01*
X29908503Y14048025D01*
X29908502Y14048022D01*
X29907704Y14040232D01*
X29898500Y13950400D01*
X29898500Y13349600D01*
X29898837Y13346354D01*
X29898837Y13346350D01*
X29907170Y13266041D01*
X29909474Y13243834D01*
X29911655Y13237298D01*
X29911655Y13237296D01*
X29944205Y13139734D01*
X29965450Y13076054D01*
X30058522Y12925652D01*
X30183697Y12800695D01*
X30187916Y12798094D01*
X30228417Y12740970D01*
X30231649Y12670047D01*
X30196024Y12608635D01*
X30188470Y12602078D01*
X30182652Y12598478D01*
X30057695Y12473303D01*
X30053855Y12467073D01*
X30053854Y12467072D01*
X29983371Y12352727D01*
X29964885Y12322738D01*
X29951556Y12282551D01*
X29917712Y12180514D01*
X29909203Y12154861D01*
X29898500Y12050400D01*
X29898500Y11736832D01*
X29878498Y11668711D01*
X29861596Y11647737D01*
X29162239Y10948379D01*
X29154471Y10941236D01*
X29116307Y10908985D01*
X29112164Y10903566D01*
X29112163Y10903565D01*
X29086887Y10870505D01*
X29071472Y10850342D01*
X29068869Y10846938D01*
X29066971Y10844518D01*
X29018031Y10783650D01*
X29014998Y10777540D01*
X29013696Y10775504D01*
X29013377Y10775048D01*
X29012967Y10774390D01*
X29012698Y10773900D01*
X29011447Y10771834D01*
X29007303Y10766414D01*
X28987851Y10724698D01*
X28974305Y10695649D01*
X28972971Y10692878D01*
X28938233Y10622898D01*
X28936581Y10616273D01*
X28935747Y10614006D01*
X28935528Y10613481D01*
X28935279Y10612777D01*
X28935117Y10612227D01*
X28934339Y10609943D01*
X28931457Y10603761D01*
X28929969Y10597103D01*
X28929966Y10597095D01*
X28914419Y10527542D01*
X28913716Y10524565D01*
X28909257Y10506680D01*
X28873371Y10445424D01*
X28810062Y10413291D01*
X28739431Y10420488D01*
X28683903Y10464727D01*
X28661000Y10537163D01*
X28661000Y11453400D01*
X28681002Y11521521D01*
X28734658Y11568014D01*
X28787000Y11579400D01*
X28935400Y11579400D01*
X28938646Y11579737D01*
X28938650Y11579737D01*
X29034308Y11589662D01*
X29034312Y11589663D01*
X29041166Y11590374D01*
X29047702Y11592555D01*
X29047704Y11592555D01*
X29184622Y11638235D01*
X29208946Y11646350D01*
X29359348Y11739422D01*
X29484305Y11864597D01*
X29544360Y11962024D01*
X29573275Y12008932D01*
X29573276Y12008934D01*
X29577115Y12015162D01*
X29619699Y12143550D01*
X29630632Y12176511D01*
X29630632Y12176513D01*
X29632797Y12183039D01*
X29643500Y12287500D01*
X29643500Y13488300D01*
X29636094Y13559681D01*
X29633238Y13587208D01*
X29633237Y13587212D01*
X29632526Y13594066D01*
X29576550Y13761846D01*
X29483478Y13912248D01*
X29358303Y14037205D01*
X29352072Y14041046D01*
X29213968Y14126175D01*
X29213966Y14126176D01*
X29207738Y14130015D01*
X29127995Y14156464D01*
X29046389Y14183532D01*
X29046387Y14183532D01*
X29039861Y14185697D01*
X29033025Y14186397D01*
X29033022Y14186398D01*
X28989969Y14190809D01*
X28935400Y14196400D01*
X28765000Y14196400D01*
X28696879Y14216402D01*
X28650386Y14270058D01*
X28639000Y14322400D01*
X28639000Y16063360D01*
X28659002Y16131481D01*
X28698697Y16170504D01*
X28731120Y16190568D01*
X28737348Y16194422D01*
X28862305Y16319597D01*
X28906315Y16390994D01*
X28951275Y16463932D01*
X28951276Y16463934D01*
X28955115Y16470162D01*
X29000585Y16607250D01*
X29008632Y16631511D01*
X29008632Y16631513D01*
X29010797Y16638039D01*
X29013884Y16668162D01*
X29021172Y16739302D01*
X29021500Y16742500D01*
X29021500Y17368300D01*
X29020025Y17382514D01*
X29019318Y17389331D01*
X30286001Y17389331D01*
X30286371Y17382510D01*
X30291895Y17331648D01*
X30295521Y17316396D01*
X30340676Y17195946D01*
X30349214Y17180351D01*
X30425715Y17078276D01*
X30438276Y17065715D01*
X30540351Y16989214D01*
X30555946Y16980676D01*
X30676394Y16935522D01*
X30691649Y16931895D01*
X30742514Y16926369D01*
X30749328Y16926000D01*
X30971885Y16926000D01*
X30987124Y16930475D01*
X30988329Y16931865D01*
X30990000Y16939548D01*
X30990000Y16944116D01*
X31498000Y16944116D01*
X31502475Y16928877D01*
X31503865Y16927672D01*
X31511548Y16926001D01*
X31738669Y16926001D01*
X31745490Y16926371D01*
X31796352Y16931895D01*
X31811604Y16935521D01*
X31932054Y16980676D01*
X31947649Y16989214D01*
X32049724Y17065715D01*
X32062285Y17078276D01*
X32138786Y17180351D01*
X32147324Y17195946D01*
X32192478Y17316394D01*
X32196105Y17331649D01*
X32201631Y17382514D01*
X32202000Y17389328D01*
X32202000Y17761885D01*
X32197525Y17777124D01*
X32196135Y17778329D01*
X32188452Y17780000D01*
X31516115Y17780000D01*
X31500876Y17775525D01*
X31499671Y17774135D01*
X31498000Y17766452D01*
X31498000Y16944116D01*
X30990000Y16944116D01*
X30990000Y17761885D01*
X30985525Y17777124D01*
X30984135Y17778329D01*
X30976452Y17780000D01*
X30304116Y17780000D01*
X30288877Y17775525D01*
X30287672Y17774135D01*
X30286001Y17766452D01*
X30286001Y17389331D01*
X29019318Y17389331D01*
X29011238Y17467208D01*
X29011237Y17467212D01*
X29010526Y17474066D01*
X28954550Y17641846D01*
X28861478Y17792248D01*
X28774891Y17878684D01*
X28740812Y17940966D01*
X28745815Y18011786D01*
X28774736Y18056875D01*
X28857134Y18139417D01*
X28862305Y18144597D01*
X28936223Y18264514D01*
X28951275Y18288932D01*
X28951276Y18288934D01*
X28955115Y18295162D01*
X28958748Y18306115D01*
X30286000Y18306115D01*
X30290475Y18290876D01*
X30291865Y18289671D01*
X30299548Y18288000D01*
X30971885Y18288000D01*
X30987124Y18292475D01*
X30988329Y18293865D01*
X30990000Y18301548D01*
X30990000Y18306115D01*
X31498000Y18306115D01*
X31502475Y18290876D01*
X31503865Y18289671D01*
X31511548Y18288000D01*
X32183884Y18288000D01*
X32199123Y18292475D01*
X32200328Y18293865D01*
X32201999Y18301548D01*
X32201999Y18678669D01*
X32201629Y18685490D01*
X32196105Y18736352D01*
X32192479Y18751604D01*
X32147324Y18872054D01*
X32138786Y18887649D01*
X32062285Y18989724D01*
X32049724Y19002285D01*
X31947649Y19078786D01*
X31932054Y19087324D01*
X31811606Y19132478D01*
X31796351Y19136105D01*
X31745486Y19141631D01*
X31738672Y19142000D01*
X31516115Y19142000D01*
X31500876Y19137525D01*
X31499671Y19136135D01*
X31498000Y19128452D01*
X31498000Y18306115D01*
X30990000Y18306115D01*
X30990000Y19123884D01*
X30985525Y19139123D01*
X30984135Y19140328D01*
X30976452Y19141999D01*
X30749331Y19141999D01*
X30742510Y19141629D01*
X30691648Y19136105D01*
X30676396Y19132479D01*
X30555946Y19087324D01*
X30540351Y19078786D01*
X30438276Y19002285D01*
X30425715Y18989724D01*
X30349214Y18887649D01*
X30340676Y18872054D01*
X30295522Y18751606D01*
X30291895Y18736351D01*
X30286369Y18685486D01*
X30286000Y18678672D01*
X30286000Y18306115D01*
X28958748Y18306115D01*
X29010797Y18463039D01*
X29021500Y18567500D01*
X29021500Y19193300D01*
X29011982Y19285034D01*
X29011238Y19292208D01*
X29011237Y19292212D01*
X29010526Y19299066D01*
X29004474Y19317208D01*
X28956868Y19459898D01*
X28954550Y19466846D01*
X28861478Y19617248D01*
X28811233Y19667406D01*
X28741483Y19737034D01*
X28736303Y19742205D01*
X28726980Y19747952D01*
X28591968Y19831175D01*
X28591966Y19831176D01*
X28585738Y19835015D01*
X28425254Y19888245D01*
X28424389Y19888532D01*
X28424387Y19888532D01*
X28417861Y19890697D01*
X28411025Y19891397D01*
X28411022Y19891398D01*
X28367969Y19895809D01*
X28313400Y19901400D01*
X27312600Y19901400D01*
X27309354Y19901063D01*
X27309350Y19901063D01*
X27213692Y19891138D01*
X27213688Y19891137D01*
X27206834Y19890426D01*
X27200298Y19888245D01*
X27200296Y19888245D01*
X27102430Y19855594D01*
X27039054Y19834450D01*
X26922032Y19762034D01*
X26898741Y19747621D01*
X26888652Y19741378D01*
X26883484Y19736201D01*
X26880269Y19733653D01*
X26814458Y19707017D01*
X26802007Y19706400D01*
X26588341Y19706400D01*
X26520220Y19726402D01*
X26499324Y19743227D01*
X26480488Y19762030D01*
X26480483Y19762034D01*
X26475303Y19767205D01*
X26469072Y19771046D01*
X26330968Y19856175D01*
X26330966Y19856176D01*
X26324738Y19860015D01*
X26230121Y19891398D01*
X26163389Y19913532D01*
X26163387Y19913532D01*
X26156861Y19915697D01*
X26150025Y19916397D01*
X26150022Y19916398D01*
X26106969Y19920809D01*
X26052400Y19926400D01*
X25001600Y19926400D01*
X24998354Y19926063D01*
X24998350Y19926063D01*
X24902692Y19916138D01*
X24902688Y19916137D01*
X24895834Y19915426D01*
X24889298Y19913245D01*
X24889296Y19913245D01*
X24823034Y19891138D01*
X24728054Y19859450D01*
X24577652Y19766378D01*
X24576769Y19767805D01*
X24519231Y19744517D01*
X24506779Y19743900D01*
X24290033Y19743900D01*
X24279489Y19744342D01*
X24268926Y19745229D01*
X24229700Y19748523D01*
X24152257Y19738189D01*
X24149257Y19737827D01*
X24107502Y19733291D01*
X24078366Y19730126D01*
X24078364Y19730126D01*
X24071583Y19729389D01*
X24065117Y19727213D01*
X24062767Y19726696D01*
X24062217Y19726599D01*
X24061450Y19726420D01*
X24060915Y19726265D01*
X24058568Y19725689D01*
X24051810Y19724787D01*
X24002987Y19707017D01*
X23978460Y19698090D01*
X23975557Y19697074D01*
X23907961Y19674325D01*
X23907954Y19674322D01*
X23901489Y19672146D01*
X23895640Y19668631D01*
X23893447Y19667618D01*
X23892932Y19667406D01*
X23892234Y19667073D01*
X23891733Y19666800D01*
X23889579Y19665740D01*
X23883166Y19663406D01*
X23817198Y19621541D01*
X23814610Y19619944D01*
X23747656Y19579714D01*
X23742705Y19575033D01*
X23740769Y19573563D01*
X23739838Y19572915D01*
X23736004Y19570015D01*
X23731636Y19567243D01*
X23727536Y19563577D01*
X23675614Y19511655D01*
X23673129Y19509237D01*
X23646283Y19483850D01*
X23583047Y19451580D01*
X23559712Y19449400D01*
X22747600Y19449400D01*
X22744354Y19449063D01*
X22744350Y19449063D01*
X22648692Y19439138D01*
X22648688Y19439137D01*
X22641834Y19438426D01*
X22635298Y19436245D01*
X22635296Y19436245D01*
X22520060Y19397799D01*
X22474054Y19382450D01*
X22323652Y19289378D01*
X22198695Y19164203D01*
X22196094Y19159984D01*
X22138970Y19119483D01*
X22068047Y19116251D01*
X22006635Y19151876D01*
X22000078Y19159430D01*
X21996478Y19165248D01*
X21871303Y19290205D01*
X21856928Y19299066D01*
X21726968Y19379175D01*
X21726966Y19379176D01*
X21720738Y19383015D01*
X21560254Y19436245D01*
X21559389Y19436532D01*
X21559387Y19436532D01*
X21552861Y19438697D01*
X21546025Y19439397D01*
X21546022Y19439398D01*
X21502969Y19443809D01*
X21448400Y19449400D01*
X20597600Y19449400D01*
X20594354Y19449063D01*
X20594350Y19449063D01*
X20498692Y19439138D01*
X20498688Y19439137D01*
X20491834Y19438426D01*
X20485298Y19436245D01*
X20485296Y19436245D01*
X20370060Y19397799D01*
X20324054Y19382450D01*
X20173652Y19289378D01*
X20048695Y19164203D01*
X20044855Y19157973D01*
X20044854Y19157972D01*
X20008760Y19099417D01*
X19955987Y19051923D01*
X19885916Y19040500D01*
X19820792Y19068774D01*
X19781292Y19127769D01*
X19775500Y19165533D01*
X19775500Y19218300D01*
X19768576Y19285034D01*
X19765238Y19317208D01*
X19765237Y19317212D01*
X19764526Y19324066D01*
X19749027Y19370524D01*
X19710868Y19484898D01*
X19708550Y19491846D01*
X19615478Y19642248D01*
X19490303Y19767205D01*
X19484072Y19771046D01*
X19345968Y19856175D01*
X19345966Y19856176D01*
X19339738Y19860015D01*
X19245121Y19891398D01*
X19178389Y19913532D01*
X19178387Y19913532D01*
X19171861Y19915697D01*
X19165025Y19916397D01*
X19165022Y19916398D01*
X19121969Y19920809D01*
X19067400Y19926400D01*
X18016600Y19926400D01*
X18013354Y19926063D01*
X18013350Y19926063D01*
X17917692Y19916138D01*
X17917688Y19916137D01*
X17910834Y19915426D01*
X17904298Y19913245D01*
X17904296Y19913245D01*
X17838034Y19891138D01*
X17743054Y19859450D01*
X17592652Y19766378D01*
X17591769Y19767805D01*
X17534231Y19744517D01*
X17521779Y19743900D01*
X14258934Y19743900D01*
X14248390Y19744342D01*
X14237827Y19745229D01*
X14198601Y19748523D01*
X14191841Y19747621D01*
X14191837Y19747621D01*
X14121188Y19738195D01*
X14118134Y19737825D01*
X14047264Y19730126D01*
X14047261Y19730125D01*
X14040483Y19729389D01*
X14034022Y19727215D01*
X14031653Y19726694D01*
X14031104Y19726597D01*
X14030363Y19726425D01*
X14029823Y19726268D01*
X14027471Y19725690D01*
X14020710Y19724788D01*
X13971885Y19707017D01*
X13947328Y19698079D01*
X13944424Y19697062D01*
X13870389Y19672146D01*
X13864539Y19668631D01*
X13862347Y19667618D01*
X13861832Y19667406D01*
X13861134Y19667073D01*
X13860633Y19666800D01*
X13858479Y19665740D01*
X13852066Y19663406D01*
X13786098Y19621541D01*
X13783510Y19619944D01*
X13716556Y19579714D01*
X13711605Y19575033D01*
X13709669Y19573563D01*
X13708738Y19572916D01*
X13704900Y19570013D01*
X13700536Y19567243D01*
X13696437Y19563577D01*
X13644532Y19511672D01*
X13642010Y19509219D01*
X13591123Y19461098D01*
X13591120Y19461094D01*
X13586160Y19456404D01*
X13582322Y19450757D01*
X13578193Y19445905D01*
X13571335Y19438475D01*
X12573265Y18440405D01*
X12510953Y18406379D01*
X12484170Y18403500D01*
X11921866Y18403500D01*
X11859684Y18396745D01*
X11723295Y18345615D01*
X11606739Y18258261D01*
X11519385Y18141705D01*
X11468255Y18005316D01*
X11461500Y17943134D01*
X11461500Y16346866D01*
X11468255Y16284684D01*
X11519385Y16148295D01*
X11606739Y16031739D01*
X11723295Y15944385D01*
X11859684Y15893255D01*
X11921866Y15886500D01*
X11956424Y15886500D01*
X12024545Y15866498D01*
X12071038Y15812842D01*
X12081142Y15742568D01*
X12051648Y15677988D01*
X12028696Y15657288D01*
X11987481Y15628429D01*
X11912473Y15575908D01*
X11912470Y15575906D01*
X11907962Y15572749D01*
X11752251Y15417038D01*
X11625944Y15236653D01*
X11623621Y15231671D01*
X11623618Y15231666D01*
X11576415Y15130438D01*
X11532880Y15037076D01*
X11475885Y14824371D01*
X11456693Y14605000D01*
X11475885Y14385629D01*
X11532880Y14172924D01*
X11556177Y14122964D01*
X11623618Y13978334D01*
X11623621Y13978329D01*
X11625944Y13973347D01*
X11629100Y13968840D01*
X11629101Y13968838D01*
X11673821Y13904972D01*
X11752251Y13792962D01*
X11907962Y13637251D01*
X12088346Y13510944D01*
X12093328Y13508621D01*
X12093333Y13508618D01*
X12220768Y13449195D01*
X12274053Y13402278D01*
X12293514Y13334001D01*
X12272972Y13266041D01*
X12220768Y13220805D01*
X12093334Y13161382D01*
X12093329Y13161379D01*
X12088347Y13159056D01*
X12083840Y13155900D01*
X12083838Y13155899D01*
X11912473Y13035908D01*
X11912470Y13035906D01*
X11907962Y13032749D01*
X11752251Y12877038D01*
X11749094Y12872530D01*
X11749092Y12872527D01*
X11629513Y12701750D01*
X11625944Y12696653D01*
X11623621Y12691671D01*
X11623618Y12691666D01*
X11606362Y12654660D01*
X11532880Y12497076D01*
X11475885Y12284371D01*
X11456693Y12065000D01*
X508500Y12065000D01*
X508500Y18282297D01*
X4260743Y18282297D01*
X4261302Y18278053D01*
X4261302Y18278049D01*
X4265832Y18243640D01*
X4298268Y17997266D01*
X4299401Y17993126D01*
X4299401Y17993124D01*
X4304197Y17975594D01*
X4374129Y17719964D01*
X4375813Y17716016D01*
X4479571Y17472761D01*
X4486923Y17455524D01*
X4539126Y17368300D01*
X4631460Y17214021D01*
X4634561Y17208839D01*
X4814313Y16984472D01*
X4870237Y16931402D01*
X4967765Y16838852D01*
X5022851Y16786577D01*
X5256317Y16618814D01*
X5260112Y16616805D01*
X5260113Y16616804D01*
X5281840Y16605300D01*
X5510392Y16484288D01*
X5597738Y16452324D01*
X5774184Y16387754D01*
X5780373Y16385489D01*
X6061264Y16324245D01*
X6082166Y16322600D01*
X6284282Y16306693D01*
X6284291Y16306693D01*
X6286739Y16306500D01*
X6442271Y16306500D01*
X6444407Y16306646D01*
X6444418Y16306646D01*
X6652548Y16320835D01*
X6652554Y16320836D01*
X6656825Y16321127D01*
X6661020Y16321996D01*
X6661022Y16321996D01*
X6797615Y16350283D01*
X6938342Y16379426D01*
X7209343Y16475393D01*
X7464812Y16607250D01*
X7468313Y16609711D01*
X7468317Y16609713D01*
X7657253Y16742500D01*
X7700023Y16772559D01*
X7778956Y16845908D01*
X7907479Y16965339D01*
X7907481Y16965342D01*
X7910622Y16968260D01*
X8092713Y17190732D01*
X8242927Y17435858D01*
X8252282Y17457168D01*
X8356757Y17695170D01*
X8358483Y17699102D01*
X8381052Y17778329D01*
X8427380Y17940966D01*
X8437244Y17975594D01*
X8477751Y18260216D01*
X8477798Y18269047D01*
X8479235Y18543417D01*
X8479235Y18543424D01*
X8479257Y18547703D01*
X8441732Y18832734D01*
X8436314Y18852541D01*
X8419585Y18913689D01*
X8365871Y19110036D01*
X8352395Y19141629D01*
X8254763Y19370524D01*
X8254761Y19370528D01*
X8253077Y19374476D01*
X8140657Y19562316D01*
X8107643Y19617479D01*
X8107640Y19617483D01*
X8105439Y19621161D01*
X7925687Y19845528D01*
X7717149Y20043423D01*
X7483683Y20211186D01*
X7476671Y20214899D01*
X7434872Y20237030D01*
X7229608Y20345712D01*
X6959627Y20444511D01*
X6678736Y20505755D01*
X6647685Y20508199D01*
X6455718Y20523307D01*
X6455709Y20523307D01*
X6453261Y20523500D01*
X6297729Y20523500D01*
X6295593Y20523354D01*
X6295582Y20523354D01*
X6087452Y20509165D01*
X6087446Y20509164D01*
X6083175Y20508873D01*
X6078980Y20508004D01*
X6078978Y20508004D01*
X5942417Y20479724D01*
X5801658Y20450574D01*
X5530657Y20354607D01*
X5275188Y20222750D01*
X5271687Y20220289D01*
X5271683Y20220287D01*
X5264017Y20214899D01*
X5039977Y20057441D01*
X5024892Y20043423D01*
X4857901Y19888245D01*
X4829378Y19861740D01*
X4647287Y19639268D01*
X4497073Y19394142D01*
X4495347Y19390209D01*
X4495346Y19390208D01*
X4384426Y19137525D01*
X4381517Y19130898D01*
X4302756Y18854406D01*
X4262249Y18569784D01*
X4262227Y18565495D01*
X4262226Y18565488D01*
X4260765Y18286583D01*
X4260743Y18282297D01*
X508500Y18282297D01*
X508500Y20755848D01*
X528502Y20823969D01*
X582158Y20870462D01*
X652432Y20880566D01*
X713009Y20852000D01*
X714151Y20853418D01*
X965486Y20650977D01*
X971659Y20646591D01*
X1242271Y20477822D01*
X1248931Y20474206D01*
X1537852Y20339173D01*
X1544905Y20336380D01*
X1847970Y20237030D01*
X1855282Y20235112D01*
X2168092Y20172891D01*
X2175590Y20171863D01*
X2493610Y20147672D01*
X2501173Y20147554D01*
X2819785Y20161743D01*
X2827326Y20162535D01*
X3141924Y20214899D01*
X3149302Y20216589D01*
X3455355Y20306375D01*
X3462450Y20308929D01*
X3755496Y20434831D01*
X3762263Y20438235D01*
X4038042Y20598420D01*
X4044349Y20602610D01*
X4254305Y20761111D01*
X4262761Y20772504D01*
X4256045Y20784744D01*
X2269885Y22770905D01*
X2235859Y22833217D01*
X2240924Y22904033D01*
X2269885Y22949095D01*
X2450905Y23130115D01*
X2513217Y23164141D01*
X2584032Y23159076D01*
X2629095Y23130115D01*
X4613285Y21145926D01*
X4626408Y21138760D01*
X4636709Y21146149D01*
X4740751Y21273945D01*
X4745164Y21280086D01*
X4915349Y21549813D01*
X4919005Y21556464D01*
X5055544Y21844665D01*
X5058375Y21851705D01*
X5159306Y22154233D01*
X5161270Y22161567D01*
X5225122Y22474011D01*
X5226194Y22481535D01*
X5252173Y22800949D01*
X5252378Y22805424D01*
X5252927Y22857779D01*
X5252817Y22862211D01*
X5233529Y23182147D01*
X5232621Y23189649D01*
X5175319Y23503407D01*
X5173518Y23510740D01*
X5078935Y23815345D01*
X5076263Y23822417D01*
X4945781Y24113430D01*
X4942264Y24120157D01*
X4777771Y24393379D01*
X4773481Y24399623D01*
X4577350Y24651111D01*
X4572333Y24656801D01*
X4552599Y24676639D01*
X4518738Y24739040D01*
X4523988Y24809842D01*
X4566684Y24866566D01*
X4633269Y24891202D01*
X4641928Y24891500D01*
X46155887Y24891500D01*
X46224008Y24871498D01*
G37*
G04 #@! TD.AperFunction*
G04 #@! TA.AperFunction,Conductor*
G36*
X18865121Y12171898D02*
G01*
X18911614Y12118242D01*
X18923000Y12065900D01*
X18923000Y10948016D01*
X18927475Y10932777D01*
X18928865Y10931572D01*
X18936548Y10929901D01*
X19191095Y10929901D01*
X19197614Y10930238D01*
X19293206Y10940157D01*
X19306600Y10943049D01*
X19460784Y10994488D01*
X19473962Y11000661D01*
X19611807Y11085963D01*
X19623208Y11094999D01*
X19737739Y11209729D01*
X19746751Y11221140D01*
X19831816Y11359143D01*
X19837963Y11372324D01*
X19882850Y11507653D01*
X19923281Y11566012D01*
X19988845Y11593249D01*
X20058727Y11580715D01*
X20110739Y11532391D01*
X20121967Y11507861D01*
X20167588Y11371116D01*
X20173761Y11357938D01*
X20259063Y11220093D01*
X20268099Y11208692D01*
X20382829Y11094161D01*
X20394240Y11085149D01*
X20532243Y11000084D01*
X20545424Y10993937D01*
X20699710Y10942762D01*
X20713086Y10939895D01*
X20807438Y10930228D01*
X20813854Y10929900D01*
X21063885Y10929900D01*
X21079124Y10934375D01*
X21080329Y10935765D01*
X21082000Y10943448D01*
X21082000Y12065900D01*
X21102002Y12134021D01*
X21155658Y12180514D01*
X21208000Y12191900D01*
X21464000Y12191900D01*
X21532121Y12171898D01*
X21578614Y12118242D01*
X21590000Y12065900D01*
X21590000Y10948016D01*
X21594475Y10932777D01*
X21595865Y10931572D01*
X21603548Y10929901D01*
X21858095Y10929901D01*
X21864614Y10930238D01*
X21960206Y10940157D01*
X21973600Y10943049D01*
X22127784Y10994488D01*
X22140962Y11000661D01*
X22278807Y11085963D01*
X22290208Y11094999D01*
X22404739Y11209729D01*
X22413751Y11221140D01*
X22498816Y11359143D01*
X22504963Y11372324D01*
X22556138Y11526610D01*
X22559005Y11539986D01*
X22566743Y11615510D01*
X22593584Y11681237D01*
X22651699Y11722020D01*
X22722637Y11724908D01*
X22758203Y11709928D01*
X22855090Y11650206D01*
X22862262Y11645785D01*
X22942005Y11619336D01*
X23023611Y11592268D01*
X23023613Y11592268D01*
X23030139Y11590103D01*
X23036975Y11589403D01*
X23036978Y11589402D01*
X23080031Y11584991D01*
X23134600Y11579400D01*
X24323170Y11579400D01*
X24391291Y11559398D01*
X24412265Y11542495D01*
X25080515Y10874245D01*
X25087658Y10866478D01*
X25119915Y10828307D01*
X25125339Y10824160D01*
X25125340Y10824159D01*
X25181959Y10780870D01*
X25184362Y10778987D01*
X25245251Y10730031D01*
X25251369Y10726994D01*
X25253385Y10725705D01*
X25253854Y10725377D01*
X25254507Y10724970D01*
X25255002Y10724698D01*
X25257061Y10723451D01*
X25262486Y10719303D01*
X25268673Y10716418D01*
X25333259Y10686301D01*
X25336030Y10684967D01*
X25406002Y10650233D01*
X25412627Y10648581D01*
X25414894Y10647747D01*
X25415419Y10647528D01*
X25416123Y10647279D01*
X25416673Y10647117D01*
X25418957Y10646339D01*
X25425139Y10643457D01*
X25431797Y10641969D01*
X25431805Y10641966D01*
X25501358Y10626419D01*
X25504354Y10625711D01*
X25573515Y10608467D01*
X25573518Y10608467D01*
X25580138Y10606816D01*
X25586959Y10606625D01*
X25589356Y10606297D01*
X25590470Y10606096D01*
X25595244Y10605434D01*
X25600284Y10604307D01*
X25605775Y10604000D01*
X25629812Y10604000D01*
X25681061Y10593107D01*
X25721369Y10575161D01*
X25752712Y10561206D01*
X25842556Y10542109D01*
X25933056Y10522872D01*
X25933061Y10522872D01*
X25939513Y10521500D01*
X26130487Y10521500D01*
X26136939Y10522872D01*
X26136944Y10522872D01*
X26227444Y10542109D01*
X26317288Y10561206D01*
X26323319Y10563891D01*
X26485722Y10636197D01*
X26485724Y10636198D01*
X26491752Y10638882D01*
X26503087Y10647117D01*
X26586181Y10707489D01*
X26646253Y10751134D01*
X26667193Y10774390D01*
X26769621Y10888148D01*
X26769622Y10888149D01*
X26774040Y10893056D01*
X26777341Y10898773D01*
X26781065Y10903899D01*
X26837288Y10947253D01*
X26908024Y10953327D01*
X26970816Y10920194D01*
X27005726Y10858374D01*
X27009000Y10829837D01*
X27009000Y10112811D01*
X26990260Y10046695D01*
X26929509Y9948139D01*
X26924885Y9940638D01*
X26922581Y9933691D01*
X26873424Y9785486D01*
X26869203Y9772761D01*
X26858500Y9668300D01*
X26858500Y9042500D01*
X26858837Y9039254D01*
X26858837Y9039250D01*
X26866538Y8965034D01*
X26869474Y8936734D01*
X26871655Y8930198D01*
X26871655Y8930196D01*
X26899805Y8845820D01*
X26925450Y8768954D01*
X27018522Y8618552D01*
X27023704Y8613379D01*
X27065583Y8571573D01*
X27099662Y8509291D01*
X27094659Y8438470D01*
X27052162Y8381598D01*
X26985663Y8356729D01*
X26976565Y8356400D01*
X26894830Y8356400D01*
X26826709Y8376402D01*
X26805735Y8393305D01*
X26633405Y8565635D01*
X26599379Y8627947D01*
X26596500Y8654730D01*
X26596500Y8968300D01*
X26596163Y8971550D01*
X26586238Y9067208D01*
X26586237Y9067212D01*
X26585526Y9074066D01*
X26579043Y9093500D01*
X26531868Y9234898D01*
X26529550Y9241846D01*
X26436478Y9392248D01*
X26311303Y9517205D01*
X26171283Y9603515D01*
X26166968Y9606175D01*
X26166966Y9606176D01*
X26160738Y9610015D01*
X26000254Y9663245D01*
X25999389Y9663532D01*
X25999387Y9663532D01*
X25992861Y9665697D01*
X25986025Y9666397D01*
X25986022Y9666398D01*
X25936243Y9671498D01*
X25888400Y9676400D01*
X25287600Y9676400D01*
X25284354Y9676063D01*
X25284350Y9676063D01*
X25188692Y9666138D01*
X25188688Y9666137D01*
X25181834Y9665426D01*
X25175298Y9663245D01*
X25175296Y9663245D01*
X25103210Y9639195D01*
X25014054Y9609450D01*
X24863652Y9516378D01*
X24738695Y9391203D01*
X24736094Y9386984D01*
X24678970Y9346483D01*
X24608047Y9343251D01*
X24546635Y9378876D01*
X24540078Y9386430D01*
X24536478Y9392248D01*
X24411303Y9517205D01*
X24271283Y9603515D01*
X24266968Y9606175D01*
X24266966Y9606176D01*
X24260738Y9610015D01*
X24100254Y9663245D01*
X24099389Y9663532D01*
X24099387Y9663532D01*
X24092861Y9665697D01*
X24086025Y9666397D01*
X24086022Y9666398D01*
X24036243Y9671498D01*
X23988400Y9676400D01*
X23387600Y9676400D01*
X23384354Y9676063D01*
X23384350Y9676063D01*
X23288692Y9666138D01*
X23288688Y9666137D01*
X23281834Y9665426D01*
X23275298Y9663245D01*
X23275296Y9663245D01*
X23203210Y9639195D01*
X23114054Y9609450D01*
X22963652Y9516378D01*
X22838695Y9391203D01*
X22834855Y9384973D01*
X22834854Y9384972D01*
X22802760Y9332906D01*
X22749987Y9285413D01*
X22679916Y9273989D01*
X22614792Y9302263D01*
X22575293Y9361257D01*
X22569500Y9399022D01*
X22569500Y9693300D01*
X22568707Y9700944D01*
X22559238Y9792208D01*
X22559237Y9792212D01*
X22558526Y9799066D01*
X22538520Y9859033D01*
X22504868Y9959898D01*
X22502550Y9966846D01*
X22409478Y10117248D01*
X22284303Y10242205D01*
X22218876Y10282535D01*
X22139968Y10331175D01*
X22139966Y10331176D01*
X22133738Y10335015D01*
X22053995Y10361464D01*
X21972389Y10388532D01*
X21972387Y10388532D01*
X21965861Y10390697D01*
X21959025Y10391397D01*
X21959022Y10391398D01*
X21915969Y10395809D01*
X21861400Y10401400D01*
X20810600Y10401400D01*
X20807354Y10401063D01*
X20807350Y10401063D01*
X20711692Y10391138D01*
X20711688Y10391137D01*
X20704834Y10390426D01*
X20698298Y10388245D01*
X20698296Y10388245D01*
X20610291Y10358884D01*
X20537054Y10334450D01*
X20386652Y10241378D01*
X20385769Y10242805D01*
X20328231Y10219517D01*
X20315779Y10218900D01*
X19689199Y10218900D01*
X19621078Y10238902D01*
X19619443Y10240069D01*
X19617303Y10242205D01*
X19533209Y10294042D01*
X19472968Y10331175D01*
X19472966Y10331176D01*
X19466738Y10335015D01*
X19386995Y10361464D01*
X19305389Y10388532D01*
X19305387Y10388532D01*
X19298861Y10390697D01*
X19292025Y10391397D01*
X19292022Y10391398D01*
X19248969Y10395809D01*
X19194400Y10401400D01*
X18143600Y10401400D01*
X18140354Y10401063D01*
X18140350Y10401063D01*
X18044692Y10391138D01*
X18044688Y10391137D01*
X18037834Y10390426D01*
X18031298Y10388245D01*
X18031296Y10388245D01*
X17943291Y10358884D01*
X17870054Y10334450D01*
X17835332Y10312963D01*
X17722040Y10242856D01*
X17655737Y10224000D01*
X17051332Y10224000D01*
X16983211Y10244002D01*
X16962237Y10260904D01*
X16771703Y10451437D01*
X16557198Y10665942D01*
X16523173Y10728255D01*
X16520772Y10766017D01*
X16522828Y10789522D01*
X16522828Y10789525D01*
X16523307Y10795000D01*
X16504115Y11014371D01*
X16502693Y11019677D01*
X16502692Y11019684D01*
X16486426Y11080389D01*
X16488116Y11151366D01*
X16527910Y11210161D01*
X16593175Y11238109D01*
X16608133Y11239000D01*
X16856067Y11239000D01*
X16866612Y11238558D01*
X16916400Y11234377D01*
X16993843Y11244711D01*
X16996843Y11245073D01*
X17038598Y11249609D01*
X17067734Y11252774D01*
X17067736Y11252774D01*
X17074517Y11253511D01*
X17080983Y11255687D01*
X17083333Y11256204D01*
X17083883Y11256301D01*
X17084650Y11256480D01*
X17085185Y11256635D01*
X17087532Y11257211D01*
X17094290Y11258113D01*
X17167642Y11284811D01*
X17170543Y11285826D01*
X17238139Y11308575D01*
X17238146Y11308578D01*
X17244611Y11310754D01*
X17250460Y11314269D01*
X17252653Y11315282D01*
X17253168Y11315494D01*
X17253866Y11315827D01*
X17254367Y11316100D01*
X17256521Y11317160D01*
X17262934Y11319494D01*
X17328902Y11361359D01*
X17331493Y11362958D01*
X17350392Y11374314D01*
X17419084Y11392255D01*
X17486571Y11370209D01*
X17522432Y11332615D01*
X17592063Y11220093D01*
X17601099Y11208692D01*
X17715829Y11094161D01*
X17727240Y11085149D01*
X17865243Y11000084D01*
X17878424Y10993937D01*
X18032710Y10942762D01*
X18046086Y10939895D01*
X18140438Y10930228D01*
X18146854Y10929900D01*
X18396885Y10929900D01*
X18412124Y10934375D01*
X18413329Y10935765D01*
X18415000Y10943448D01*
X18415000Y12065900D01*
X18435002Y12134021D01*
X18488658Y12180514D01*
X18541000Y12191900D01*
X18797000Y12191900D01*
X18865121Y12171898D01*
G37*
G04 #@! TD.AperFunction*
G04 #@! TA.AperFunction,Conductor*
G36*
X17585665Y18071898D02*
G01*
X17632158Y18018242D01*
X17642262Y17947968D01*
X17612768Y17883388D01*
X17595806Y17867152D01*
X17587790Y17860799D01*
X17473261Y17746071D01*
X17464249Y17734660D01*
X17379184Y17596657D01*
X17373037Y17583476D01*
X17321862Y17429190D01*
X17318995Y17415814D01*
X17309328Y17321462D01*
X17309000Y17315045D01*
X17309000Y17290015D01*
X17313475Y17274776D01*
X17314865Y17273571D01*
X17322548Y17271900D01*
X18670000Y17271900D01*
X18738121Y17251898D01*
X18784614Y17198242D01*
X18796000Y17145900D01*
X18796000Y16028016D01*
X18800475Y16012777D01*
X18801865Y16011572D01*
X18809548Y16009901D01*
X19064095Y16009901D01*
X19070614Y16010238D01*
X19166206Y16020157D01*
X19179600Y16023049D01*
X19333784Y16074488D01*
X19346962Y16080661D01*
X19484807Y16165963D01*
X19496208Y16174999D01*
X19610739Y16289729D01*
X19619751Y16301140D01*
X19704816Y16439143D01*
X19710963Y16452324D01*
X19758102Y16594443D01*
X19798533Y16652802D01*
X19864097Y16680039D01*
X19933979Y16667505D01*
X19984839Y16621078D01*
X20049522Y16516552D01*
X20174697Y16391595D01*
X20180927Y16387755D01*
X20180928Y16387754D01*
X20318090Y16303206D01*
X20325262Y16298785D01*
X20390083Y16277285D01*
X20486611Y16245268D01*
X20486613Y16245268D01*
X20493139Y16243103D01*
X20499975Y16242403D01*
X20499978Y16242402D01*
X20543031Y16237991D01*
X20597600Y16232400D01*
X21448400Y16232400D01*
X21451646Y16232737D01*
X21451650Y16232737D01*
X21547308Y16242662D01*
X21547312Y16242663D01*
X21554166Y16243374D01*
X21560702Y16245555D01*
X21560704Y16245555D01*
X21713155Y16296417D01*
X21721946Y16299350D01*
X21872348Y16392422D01*
X21997305Y16517597D01*
X21999906Y16521816D01*
X22057030Y16562317D01*
X22127953Y16565549D01*
X22189365Y16529924D01*
X22195922Y16522370D01*
X22199522Y16516552D01*
X22324697Y16391595D01*
X22330927Y16387755D01*
X22330928Y16387754D01*
X22468090Y16303206D01*
X22475262Y16298785D01*
X22540083Y16277285D01*
X22636611Y16245268D01*
X22636613Y16245268D01*
X22643139Y16243103D01*
X22649975Y16242403D01*
X22649978Y16242402D01*
X22693031Y16237991D01*
X22747600Y16232400D01*
X23598400Y16232400D01*
X23601646Y16232737D01*
X23601650Y16232737D01*
X23697308Y16242662D01*
X23697312Y16242663D01*
X23704166Y16243374D01*
X23710702Y16245555D01*
X23710704Y16245555D01*
X23863155Y16296417D01*
X23871946Y16299350D01*
X24022348Y16392422D01*
X24082146Y16452324D01*
X24144908Y16515195D01*
X24207191Y16549274D01*
X24278011Y16544271D01*
X24334884Y16501774D01*
X24353605Y16466051D01*
X24358586Y16451120D01*
X24364761Y16437938D01*
X24450063Y16300093D01*
X24459099Y16288692D01*
X24573829Y16174161D01*
X24585240Y16165149D01*
X24723243Y16080084D01*
X24736424Y16073937D01*
X24890710Y16022762D01*
X24904086Y16019895D01*
X24998438Y16010228D01*
X25004854Y16009900D01*
X25254885Y16009900D01*
X25270124Y16014375D01*
X25271329Y16015765D01*
X25273000Y16023448D01*
X25273000Y17145900D01*
X25293002Y17214021D01*
X25346658Y17260514D01*
X25399000Y17271900D01*
X25655000Y17271900D01*
X25723121Y17251898D01*
X25769614Y17198242D01*
X25781000Y17145900D01*
X25781000Y16028016D01*
X25785475Y16012777D01*
X25786865Y16011572D01*
X25794548Y16009901D01*
X26049095Y16009901D01*
X26055614Y16010238D01*
X26151206Y16020157D01*
X26164600Y16023049D01*
X26318784Y16074488D01*
X26331962Y16080661D01*
X26469807Y16165963D01*
X26481208Y16174999D01*
X26600910Y16294909D01*
X26601991Y16293830D01*
X26653054Y16330039D01*
X26723977Y16333276D01*
X26783046Y16300060D01*
X26788206Y16294909D01*
X26889697Y16193595D01*
X26895929Y16189753D01*
X26895931Y16189752D01*
X26927117Y16170528D01*
X26974610Y16117755D01*
X26987000Y16063269D01*
X26987000Y14322400D01*
X26966998Y14254279D01*
X26913342Y14207786D01*
X26861000Y14196400D01*
X26734600Y14196400D01*
X26731354Y14196063D01*
X26731350Y14196063D01*
X26635692Y14186138D01*
X26635688Y14186137D01*
X26628834Y14185426D01*
X26622298Y14183245D01*
X26622296Y14183245D01*
X26576419Y14167939D01*
X26461054Y14129450D01*
X26310652Y14036378D01*
X26185695Y13911203D01*
X26155381Y13862024D01*
X26142255Y13840730D01*
X26089483Y13793237D01*
X26019411Y13781813D01*
X25954288Y13810087D01*
X25927851Y13840542D01*
X25918118Y13856270D01*
X25883478Y13912248D01*
X25758303Y14037205D01*
X25752072Y14041046D01*
X25613968Y14126175D01*
X25613966Y14126176D01*
X25607738Y14130015D01*
X25527995Y14156464D01*
X25446389Y14183532D01*
X25446387Y14183532D01*
X25439861Y14185697D01*
X25433025Y14186397D01*
X25433022Y14186398D01*
X25389969Y14190809D01*
X25335400Y14196400D01*
X23134600Y14196400D01*
X23131354Y14196063D01*
X23131350Y14196063D01*
X23035692Y14186138D01*
X23035688Y14186137D01*
X23028834Y14185426D01*
X23022298Y14183245D01*
X23022296Y14183245D01*
X22976419Y14167939D01*
X22861054Y14129450D01*
X22854822Y14125594D01*
X22854823Y14125594D01*
X22758843Y14066200D01*
X22690391Y14047362D01*
X22622621Y14068523D01*
X22577050Y14122964D01*
X22567213Y14160341D01*
X22565908Y14172924D01*
X22564582Y14185697D01*
X22559238Y14237207D01*
X22559237Y14237210D01*
X22558526Y14244066D01*
X22555637Y14252727D01*
X22504868Y14404898D01*
X22502550Y14411846D01*
X22409478Y14562248D01*
X22284303Y14687205D01*
X22232406Y14719195D01*
X22139968Y14776175D01*
X22139966Y14776176D01*
X22133738Y14780015D01*
X21973254Y14833245D01*
X21972389Y14833532D01*
X21972387Y14833532D01*
X21965861Y14835697D01*
X21959025Y14836397D01*
X21959022Y14836398D01*
X21915969Y14840809D01*
X21861400Y14846400D01*
X20810600Y14846400D01*
X20807354Y14846063D01*
X20807350Y14846063D01*
X20711692Y14836138D01*
X20711688Y14836137D01*
X20704834Y14835426D01*
X20698298Y14833245D01*
X20698296Y14833245D01*
X20566194Y14789172D01*
X20537054Y14779450D01*
X20386652Y14686378D01*
X20385769Y14687805D01*
X20328231Y14664517D01*
X20315779Y14663900D01*
X19689199Y14663900D01*
X19621078Y14683902D01*
X19619443Y14685069D01*
X19617303Y14687205D01*
X19473911Y14775594D01*
X19472968Y14776175D01*
X19472966Y14776176D01*
X19466738Y14780015D01*
X19306254Y14833245D01*
X19305389Y14833532D01*
X19305387Y14833532D01*
X19298861Y14835697D01*
X19292025Y14836397D01*
X19292022Y14836398D01*
X19248969Y14840809D01*
X19194400Y14846400D01*
X18143600Y14846400D01*
X18140354Y14846063D01*
X18140350Y14846063D01*
X18044692Y14836138D01*
X18044688Y14836137D01*
X18037834Y14835426D01*
X18031298Y14833245D01*
X18031296Y14833245D01*
X17899194Y14789172D01*
X17870054Y14779450D01*
X17719652Y14686378D01*
X17594695Y14561203D01*
X17590855Y14554973D01*
X17590854Y14554972D01*
X17556031Y14498478D01*
X17501885Y14410638D01*
X17499581Y14403691D01*
X17449509Y14252727D01*
X17446203Y14242761D01*
X17435500Y14138300D01*
X17435500Y13824732D01*
X17415498Y13756611D01*
X17398596Y13735637D01*
X16996961Y13334001D01*
X16722588Y13059628D01*
X16660275Y13025603D01*
X16589460Y13030667D01*
X16532624Y13073214D01*
X16507813Y13139734D01*
X16507971Y13159704D01*
X16522828Y13329525D01*
X16523307Y13335000D01*
X16504115Y13554371D01*
X16447120Y13767076D01*
X16402845Y13862024D01*
X16356382Y13961666D01*
X16356379Y13961671D01*
X16354056Y13966653D01*
X16345877Y13978334D01*
X16230908Y14142527D01*
X16230906Y14142530D01*
X16227749Y14147038D01*
X16072038Y14302749D01*
X15891654Y14429056D01*
X15886672Y14431379D01*
X15886667Y14431382D01*
X15759232Y14490805D01*
X15705947Y14537722D01*
X15686486Y14605999D01*
X15707028Y14673959D01*
X15759232Y14719195D01*
X15886667Y14778618D01*
X15886672Y14778621D01*
X15891654Y14780944D01*
X16072038Y14907251D01*
X16227749Y15062962D01*
X16354056Y15243347D01*
X16356379Y15248329D01*
X16356382Y15248334D01*
X16403585Y15349562D01*
X16447120Y15442924D01*
X16504115Y15655629D01*
X16523307Y15875000D01*
X16504115Y16094371D01*
X16447120Y16307076D01*
X16386098Y16437938D01*
X16356382Y16501666D01*
X16356379Y16501671D01*
X16354056Y16506653D01*
X16346393Y16517597D01*
X16230908Y16682527D01*
X16230906Y16682530D01*
X16227749Y16687038D01*
X16193982Y16720805D01*
X17309001Y16720805D01*
X17309338Y16714286D01*
X17319257Y16618694D01*
X17322149Y16605300D01*
X17373588Y16451116D01*
X17379761Y16437938D01*
X17465063Y16300093D01*
X17474099Y16288692D01*
X17588829Y16174161D01*
X17600240Y16165149D01*
X17738243Y16080084D01*
X17751424Y16073937D01*
X17905710Y16022762D01*
X17919086Y16019895D01*
X18013438Y16010228D01*
X18019854Y16009900D01*
X18269885Y16009900D01*
X18285124Y16014375D01*
X18286329Y16015765D01*
X18288000Y16023448D01*
X18288000Y16745785D01*
X18283525Y16761024D01*
X18282135Y16762229D01*
X18274452Y16763900D01*
X17327116Y16763900D01*
X17311877Y16759425D01*
X17310672Y16758035D01*
X17309001Y16750352D01*
X17309001Y16720805D01*
X16193982Y16720805D01*
X16072038Y16842749D01*
X15891654Y16969056D01*
X15692076Y17062120D01*
X15479371Y17119115D01*
X15260000Y17138307D01*
X15040629Y17119115D01*
X14827924Y17062120D01*
X14734562Y17018585D01*
X14633334Y16971382D01*
X14633329Y16971379D01*
X14628347Y16969056D01*
X14623840Y16965900D01*
X14623838Y16965899D01*
X14452473Y16845908D01*
X14452470Y16845906D01*
X14447962Y16842749D01*
X14292251Y16687038D01*
X14289094Y16682530D01*
X14289092Y16682527D01*
X14207713Y16566305D01*
X14152256Y16521977D01*
X14081637Y16514668D01*
X14018276Y16546699D01*
X13982291Y16607900D01*
X13978500Y16638576D01*
X13978500Y17457168D01*
X13998502Y17525289D01*
X14015404Y17546263D01*
X14524135Y18054995D01*
X14586448Y18089020D01*
X14613231Y18091900D01*
X17517544Y18091900D01*
X17585665Y18071898D01*
G37*
G04 #@! TD.AperFunction*
M02*
