G04 #@! TF.GenerationSoftware,KiCad,Pcbnew,6.0.9-8da3e8f707~116~ubuntu22.04.1*
G04 #@! TF.CreationDate,2022-11-15T15:38:03-07:00*
G04 #@! TF.ProjectId,Xiegu MiniMic,58696567-7520-44d6-996e-694d69632e6b,rev?*
G04 #@! TF.SameCoordinates,PX41672a0PY54efc64*
G04 #@! TF.FileFunction,Soldermask,Top*
G04 #@! TF.FilePolarity,Negative*
%FSLAX46Y46*%
G04 Gerber Fmt 4.6, Leading zero omitted, Abs format (unit mm)*
G04 Created by KiCad (PCBNEW 6.0.9-8da3e8f707~116~ubuntu22.04.1) date 2022-11-15 15:38:03*
%MOMM*%
%LPD*%
G01*
G04 APERTURE LIST*
G04 Aperture macros list*
%AMRoundRect*
0 Rectangle with rounded corners*
0 $1 Rounding radius*
0 $2 $3 $4 $5 $6 $7 $8 $9 X,Y pos of 4 corners*
0 Add a 4 corners polygon primitive as box body*
4,1,4,$2,$3,$4,$5,$6,$7,$8,$9,$2,$3,0*
0 Add four circle primitives for the rounded corners*
1,1,$1+$1,$2,$3*
1,1,$1+$1,$4,$5*
1,1,$1+$1,$6,$7*
1,1,$1+$1,$8,$9*
0 Add four rect primitives between the rounded corners*
20,1,$1+$1,$2,$3,$4,$5,0*
20,1,$1+$1,$4,$5,$6,$7,0*
20,1,$1+$1,$6,$7,$8,$9,0*
20,1,$1+$1,$8,$9,$2,$3,0*%
G04 Aperture macros list end*
%ADD10RoundRect,0.250000X-0.375000X-0.850000X0.375000X-0.850000X0.375000X0.850000X-0.375000X0.850000X0*%
%ADD11RoundRect,0.250000X-0.475000X0.250000X-0.475000X-0.250000X0.475000X-0.250000X0.475000X0.250000X0*%
%ADD12RoundRect,0.250000X0.450000X-0.262500X0.450000X0.262500X-0.450000X0.262500X-0.450000X-0.262500X0*%
%ADD13RoundRect,0.250000X0.250000X0.475000X-0.250000X0.475000X-0.250000X-0.475000X0.250000X-0.475000X0*%
%ADD14RoundRect,0.250000X0.475000X-0.250000X0.475000X0.250000X-0.475000X0.250000X-0.475000X-0.250000X0*%
%ADD15C,1.498000*%
%ADD16C,1.950000*%
%ADD17C,4.400000*%
%ADD18RoundRect,0.250000X-0.250000X-0.475000X0.250000X-0.475000X0.250000X0.475000X-0.250000X0.475000X0*%
%ADD19C,3.200000*%
%ADD20R,1.500000X1.500000*%
%ADD21C,1.500000*%
%ADD22R,0.900000X1.200000*%
%ADD23RoundRect,0.250000X1.050000X0.550000X-1.050000X0.550000X-1.050000X-0.550000X1.050000X-0.550000X0*%
%ADD24C,1.300000*%
G04 APERTURE END LIST*
D10*
X21023000Y17840900D03*
X23173000Y17840900D03*
D11*
X25527000Y18917900D03*
X25527000Y17017900D03*
D12*
X27813000Y17055400D03*
X27813000Y18880400D03*
D13*
X25588000Y8442900D03*
X23688000Y8442900D03*
D11*
X21336000Y9392900D03*
X21336000Y7492900D03*
D14*
X31132000Y11750000D03*
X31132000Y13650000D03*
D11*
X18669000Y9392900D03*
X18669000Y7492900D03*
X18542000Y18917900D03*
X18542000Y17017900D03*
D15*
X38390000Y3302000D03*
X42890000Y3302000D03*
D16*
X37135000Y5792000D03*
X44145000Y5792000D03*
D17*
X48260000Y2540000D03*
D18*
X39436000Y9144000D03*
X41336000Y9144000D03*
D11*
X18669000Y13837900D03*
X18669000Y11937900D03*
D19*
X6370000Y6985000D03*
X6370000Y18415000D03*
D20*
X12720000Y17145000D03*
D21*
X15260000Y15875000D03*
X12720000Y14605000D03*
X15260000Y13335000D03*
X12720000Y12065000D03*
X15260000Y10795000D03*
X12720000Y9525000D03*
X15260000Y8255000D03*
D22*
X34544000Y18034000D03*
X31244000Y18034000D03*
D17*
X2540000Y2540000D03*
D11*
X21336000Y13837900D03*
X21336000Y11937900D03*
D17*
X48260000Y22860000D03*
D12*
X28067000Y7530400D03*
X28067000Y9355400D03*
D22*
X34560000Y8315900D03*
X31260000Y8315900D03*
D23*
X27835000Y12887900D03*
X24235000Y12887900D03*
D17*
X2540000Y22860000D03*
D24*
X36460000Y13650000D03*
X36460000Y11750000D03*
M02*
